<svg width="34" height="34" viewBox="0 0 34 34" fill="none" xmlns="http://www.w3.org/2000/svg">
<g id="fi-sr-angle-small-left">
<path id="Vector" d="M15.5226 17.5017C15.4567 17.4359 15.4043 17.3577 15.3686 17.2717C15.3329 17.1856 15.3145 17.0933 15.3145 17.0002C15.3145 16.907 15.3329 16.8148 15.3686 16.7287C15.4043 16.6426 15.4567 16.5645 15.5226 16.4987L22.0195 10.0033C22.4181 9.60481 22.6421 9.06431 22.6423 8.50068C22.6424 7.93705 22.4186 7.39645 22.0202 6.9978C21.6217 6.59916 21.0812 6.37513 20.5176 6.375C19.954 6.37487 19.4133 6.59864 19.0147 6.9971L12.5179 13.4939C11.5896 14.4247 11.0684 15.6856 11.0684 17.0002C11.0684 18.3147 11.5896 19.5756 12.5179 20.5064L19.0147 27.0033C19.4133 27.4017 19.954 27.6255 20.5176 27.6254C21.0812 27.6252 21.6217 27.4012 22.0202 27.0026C22.4186 26.6039 22.6424 26.0633 22.6423 25.4997C22.6421 24.936 22.4181 24.3955 22.0195 23.9971L15.5226 17.5017Z" fill="#545454"/>
</g>
</svg>
