<svg width="20" height="21" viewBox="0 0 20 21" fill="none" xmlns="http://www.w3.org/2000/svg">
<g id="fi-sr-credit-card" clip-path="url(#clip0_496_4342)">
<path id="Vector" d="M15.8333 3H4.16667C3.062 3.00132 2.00296 3.44073 1.22185 4.22185C0.440735 5.00296 0.00132321 6.062 0 7.16667H20C19.9987 6.062 19.5593 5.00296 18.7782 4.22185C17.997 3.44073 16.938 3.00132 15.8333 3Z" fill="#3284BB"/>
<path id="Vector_2" d="M0 13.834C0.00132321 14.9386 0.440735 15.9977 1.22185 16.7788C2.00296 17.5599 3.062 17.9993 4.16667 18.0007H15.8333C16.938 17.9993 17.997 17.5599 18.7782 16.7788C19.5593 15.9977 19.9987 14.9386 20 13.834V8.83398H0V13.834ZM5.83333 13.4173C5.83333 13.6645 5.76002 13.9062 5.62267 14.1118C5.48532 14.3173 5.2901 14.4776 5.06169 14.5722C4.83328 14.6668 4.58195 14.6915 4.33947 14.6433C4.09699 14.5951 3.87427 14.476 3.69945 14.3012C3.52463 14.1264 3.40558 13.9037 3.35735 13.6612C3.30912 13.4187 3.33387 13.1674 3.42848 12.939C3.52309 12.7106 3.68331 12.5153 3.88887 12.378C4.09443 12.2406 4.33611 12.1673 4.58333 12.1673C4.91485 12.1673 5.2328 12.299 5.46722 12.5334C5.70164 12.7679 5.83333 13.0858 5.83333 13.4173Z" fill="#3284BB"/>
</g>
<defs>
<clipPath id="clip0_496_4342">
<rect width="20" height="20" fill="white" transform="translate(0 0.5)"/>
</clipPath>
</defs>
</svg>
