<svg width="21" height="22" viewBox="0 0 21 22" fill="none" xmlns="http://www.w3.org/2000/svg">
<path d="M20.675 12.5234L18.9334 6.25705C18.4229 4.42127 17.3134 2.80881 15.7813 1.67598C14.2491 0.543144 12.3823 -0.0450501 10.4775 0.00488997C8.57276 0.0548301 6.73933 0.740038 5.26868 1.9516C3.79802 3.16316 2.77455 4.83154 2.36095 6.69155L1.01253 12.7553C0.86359 13.4253 0.867033 14.1202 1.02261 14.7888C1.17819 15.4573 1.48193 16.0823 1.9114 16.6177C2.34088 17.1531 2.88512 17.5853 3.50395 17.8822C4.12279 18.1791 4.8004 18.3332 5.48678 18.3332H6.50795C6.71834 19.3693 7.28045 20.3008 8.09905 20.9699C8.91764 21.639 9.94237 22.0045 10.9996 22.0045C12.0569 22.0045 13.0816 21.639 13.9002 20.9699C14.7188 20.3008 15.2809 19.3693 15.4913 18.3332H16.2594C16.966 18.3333 17.663 18.1699 18.2961 17.856C18.9291 17.5421 19.4809 17.0861 19.9085 16.5236C20.3361 15.9611 20.6279 15.3073 20.761 14.6134C20.8941 13.9195 20.8641 13.2042 20.675 12.5234ZM10.9996 20.1665C10.4329 20.1642 9.88071 19.9868 9.41864 19.6586C8.95658 19.3305 8.60719 18.8675 8.41828 18.3332H13.5809C13.392 18.8675 13.0427 19.3305 12.5806 19.6586C12.1185 19.9868 11.5664 20.1642 10.9996 20.1665ZM18.4484 15.4136C18.193 15.7525 17.8621 16.0271 17.4819 16.2157C17.1018 16.4042 16.6829 16.5016 16.2585 16.4999H5.48678C5.075 16.4998 4.66849 16.4073 4.29726 16.2291C3.92603 16.0509 3.59956 15.7916 3.34193 15.4704C3.08431 15.1491 2.90211 14.7741 2.8088 14.3731C2.71548 13.972 2.71343 13.5551 2.80278 13.1531L4.15028 7.08846C4.47511 5.62749 5.27898 4.31702 6.43412 3.36537C7.58925 2.41373 9.02936 1.87554 10.5255 1.83634C12.0216 1.79715 13.4879 2.2592 14.6913 3.14906C15.8947 4.03891 16.7661 5.3055 17.1669 6.74746L18.9086 13.0138C19.0237 13.4221 19.042 13.8515 18.9621 14.2681C18.8823 14.6847 18.7064 15.0769 18.4484 15.4136Z" fill="#545454"/>
</svg>
