<svg width="38" height="34" viewBox="0 0 38 34" fill="none" xmlns="http://www.w3.org/2000/svg">
<g id="fi-sr-box-open">
<g clip-path="url(#clip0_496_4440)">
<path id="Vector" d="M19.0257 8.11821L4.78993 3.85829L16.5098 0.363375C18.1343 -0.121125 19.8918 -0.121125 21.5163 0.363375L33.263 3.86679L19.0257 8.11821ZM13.9875 16.0841L17.4313 10.9501L4.85009 7.19737C3.87317 6.90554 2.80284 7.26112 2.27242 8.05021L0.488008 10.7135C-0.568075 12.2889 0.277425 14.3331 2.22493 14.914L10.2698 17.3138C11.6774 17.7331 13.2243 17.2217 13.9875 16.0841ZM4.76301 3.84979V3.86538L4.78993 3.85829L4.76301 3.84979ZM17.4297 33.8647L17.4297 16.4567L16.7013 17.5419C15.5265 19.2929 13.465 20.2973 11.2943 20.2973C10.6213 20.2973 9.93892 20.2024 9.26759 20.0012L3.17967 18.1865L3.17967 24.6436C3.17967 27.6923 5.35992 30.3995 8.59309 31.3629L15.6152 33.4567C16.2073 33.6281 16.8153 33.7684 17.4297 33.8633V33.8647ZM37.5697 10.7603L35.752 8.05021C35.2232 7.26112 34.1513 6.90554 33.1743 7.19737L20.5948 10.9487L24.0385 16.0827C24.8017 17.2217 26.347 17.7331 27.7546 17.3124L35.8581 14.8955C37.7755 14.3232 38.6083 12.3101 37.5681 10.7589L37.5697 10.7603ZM26.7318 20.2987C24.561 20.2987 22.4995 19.2957 21.3247 17.5433L20.5963 16.4581L20.5963 33.8576C21.2645 33.7528 21.9263 33.5998 22.5533 33.4128H22.5692L29.4329 31.3643C32.6661 30.3995 34.8463 27.6937 34.8463 24.645L34.8463 18.1865L28.7584 20.0026C28.0871 20.2038 27.4047 20.2987 26.7318 20.2987Z" fill="#079F04"/>
</g>
</g>
<defs>
<clipPath id="clip0_496_4440">
<rect width="38" height="34" rx="10" fill="white"/>
</clipPath>
</defs>
</svg>
