<svg width="15" height="16" viewBox="0 0 15 16" fill="none" xmlns="http://www.w3.org/2000/svg">
<g id="fi-sr-calendar" clip-path="url(#clip0_496_4016)">
<path id="Vector" d="M0 12.375C0.000992411 13.2035 0.330551 13.9978 0.916387 14.5836C1.50222 15.1694 2.2965 15.499 3.125 15.5H11.875C12.7035 15.499 13.4978 15.1694 14.0836 14.5836C14.6694 13.9978 14.999 13.2035 15 12.375V6.75H0L0 12.375ZM10.625 9.5625C10.8104 9.5625 10.9917 9.61748 11.1458 9.7205C11.3 9.82351 11.4202 9.96993 11.4911 10.1412C11.5621 10.3125 11.5807 10.501 11.5445 10.6829C11.5083 10.8648 11.419 11.0318 11.2879 11.1629C11.1568 11.294 10.9898 11.3833 10.8079 11.4195C10.626 11.4557 10.4375 11.4371 10.2662 11.3661C10.0949 11.2952 9.94851 11.175 9.8455 11.0208C9.74248 10.8667 9.6875 10.6854 9.6875 10.5C9.6875 10.2514 9.78627 10.0129 9.96209 9.83709C10.1379 9.66127 10.3764 9.5625 10.625 9.5625ZM7.5 9.5625C7.68542 9.5625 7.86668 9.61748 8.02085 9.7205C8.17502 9.82351 8.29518 9.96993 8.36614 10.1412C8.43709 10.3125 8.45566 10.501 8.41949 10.6829C8.38331 10.8648 8.29402 11.0318 8.16291 11.1629C8.0318 11.294 7.86475 11.3833 7.6829 11.4195C7.50104 11.4557 7.31254 11.4371 7.14123 11.3661C6.96993 11.2952 6.82351 11.175 6.7205 11.0208C6.61748 10.8667 6.5625 10.6854 6.5625 10.5C6.5625 10.2514 6.66127 10.0129 6.83709 9.83709C7.0129 9.66127 7.25136 9.5625 7.5 9.5625ZM4.375 9.5625C4.56042 9.5625 4.74168 9.61748 4.89585 9.7205C5.05002 9.82351 5.17018 9.96993 5.24114 10.1412C5.31209 10.3125 5.33066 10.501 5.29449 10.6829C5.25831 10.8648 5.16902 11.0318 5.03791 11.1629C4.9068 11.294 4.73975 11.3833 4.5579 11.4195C4.37604 11.4557 4.18754 11.4371 4.01623 11.3661C3.84493 11.2952 3.69851 11.175 3.5955 11.0208C3.49248 10.8667 3.4375 10.6854 3.4375 10.5C3.4375 10.2514 3.53627 10.0129 3.71209 9.83709C3.8879 9.66127 4.12636 9.5625 4.375 9.5625Z" fill="#979797"/>
<path id="Vector_2" d="M11.875 1.75H11.25V1.125C11.25 0.95924 11.1842 0.800269 11.0669 0.683058C10.9497 0.565848 10.7908 0.5 10.625 0.5C10.4592 0.5 10.3003 0.565848 10.1831 0.683058C10.0658 0.800269 10 0.95924 10 1.125V1.75H5V1.125C5 0.95924 4.93415 0.800269 4.81694 0.683058C4.69973 0.565848 4.54076 0.5 4.375 0.5C4.20924 0.5 4.05027 0.565848 3.93306 0.683058C3.81585 0.800269 3.75 0.95924 3.75 1.125V1.75H3.125C2.2965 1.75099 1.50222 2.08055 0.916387 2.66639C0.330551 3.25222 0.000992411 4.0465 0 4.875L0 5.5H15V4.875C14.999 4.0465 14.6694 3.25222 14.0836 2.66639C13.4978 2.08055 12.7035 1.75099 11.875 1.75Z" fill="#979797"/>
</g>
<defs>
<clipPath id="clip0_496_4016">
<rect width="15" height="15" fill="white" transform="translate(0 0.5)"/>
</clipPath>
</defs>
</svg>
