<svg width="18" height="14" viewBox="0 0 18 14" fill="none" xmlns="http://www.w3.org/2000/svg">
<path d="M16.6147 3.26596C16.4149 3.02611 16.1647 2.83321 15.8819 2.70096C15.5991 2.5687 15.2906 2.50034 14.9784 2.50072H3.49061L3.46077 2.25132C3.3997 1.73294 3.15055 1.25498 2.76054 0.908059C2.37054 0.561141 1.8668 0.369383 1.34483 0.369141L1.18709 0.369141C0.998645 0.369141 0.81792 0.443999 0.684671 0.577249C0.551421 0.710499 0.476563 0.891224 0.476562 1.07967C0.476563 1.26811 0.551421 1.44884 0.684671 1.58209C0.81792 1.71533 0.998645 1.79019 1.18709 1.79019H1.34483C1.51886 1.79022 1.68683 1.85411 1.81688 1.96975C1.94693 2.0854 2.03002 2.24475 2.05038 2.41759L3.02806 10.7307C3.12956 11.5953 3.54495 12.3925 4.19539 12.971C4.84583 13.5496 5.68604 13.8692 6.55654 13.8691H13.9766C14.165 13.8691 14.3457 13.7943 14.479 13.661C14.6122 13.5278 14.6871 13.3471 14.6871 13.1586C14.6871 12.9702 14.6122 12.7894 14.479 12.6562C14.3457 12.5229 14.165 12.4481 13.9766 12.4481H6.55654C6.11676 12.4469 5.68813 12.3096 5.32941 12.0552C4.97069 11.8008 4.69944 11.4417 4.55285 11.027H13.0223C13.8553 11.0271 14.6617 10.7345 15.3009 10.2003C15.94 9.66612 16.3711 8.92437 16.5188 8.10464L17.0766 5.01101C17.1323 4.70407 17.1198 4.38864 17.0399 4.08707C16.9601 3.7855 16.815 3.50517 16.6147 3.26596ZM15.6818 4.75877L15.1234 7.8524C15.0346 8.3448 14.7755 8.79029 14.3914 9.11089C14.0073 9.43148 13.5226 9.60674 13.0223 9.60598H4.3269L3.6583 3.92177H14.9784C15.0828 3.92115 15.186 3.94353 15.2808 3.98732C15.3755 4.03112 15.4594 4.09524 15.5266 4.17515C15.5937 4.25506 15.6425 4.34878 15.6693 4.44965C15.6961 4.55052 15.7004 4.65606 15.6818 4.75877Z" fill="white"/>
</svg>
