<svg width="18" height="18" viewBox="0 0 18 18" fill="none" xmlns="http://www.w3.org/2000/svg">
<path d="M6.75 16.5C6.75 17.325 6.075 18 5.25 18C4.425 18 3.75 17.325 3.75 16.5C3.75 15.675 4.425 15 5.25 15C6.075 15 6.75 15.675 6.75 16.5ZM12.75 15C11.925 15 11.25 15.675 11.25 16.5C11.25 17.325 11.925 18 12.75 18C13.575 18 14.25 17.325 14.25 16.5C14.25 15.675 13.575 15 12.75 15ZM17.49 3.075C17.0625 2.55 16.425 2.25 15.75 2.25H10.5V7.125L11.49 6.2025C11.7975 5.9175 12.27 5.9325 12.5475 6.24C12.8325 6.54 12.81 7.02 12.51 7.2975L11.3175 8.4075C10.89 8.835 10.32 9.0525 9.75 9.0525C9.18 9.0525 8.595 8.835 8.1525 8.3925L6.9825 7.2975C6.6825 7.0125 6.6675 6.54 6.945 6.24C7.23 5.94 7.7025 5.9175 8.0025 6.2025L8.9925 7.125V2.25H3.93L3.9 1.9875C3.765 0.855 2.805 0 1.665 0H0.75C0.3375 0 0 0.3375 0 0.75C0 1.1625 0.3375 1.5 0.75 1.5H1.665C2.0475 1.5 2.3625 1.785 2.4075 2.16L3.4425 10.935C3.6675 12.825 5.265 14.25 7.17 14.25H14.25C14.6625 14.25 15 13.9125 15 13.5C15 13.0875 14.6625 12.75 14.25 12.75H7.17C6.2025 12.75 5.37 12.1275 5.055 11.25H13.62C15.405 11.25 16.95 9.9825 17.295 8.235L17.955 4.9425C18.09 4.2825 17.9175 3.6 17.49 3.075Z" fill="white"/>
</svg>
