<svg width="12" height="13" viewBox="0 0 12 13" fill="none" xmlns="http://www.w3.org/2000/svg">
<g clip-path="url(#clip0_496_3987)">
<path d="M12 4V4.5L0 4.5L0 4C0 2.6195 1.1195 1.5 2.5 1.5H3V1C3 0.724 3.224 0.5 3.5 0.5C3.776 0.5 4 0.724 4 1V1.5L8 1.5V1C8 0.724 8.224 0.5 8.5 0.5C8.776 0.5 9 0.724 9 1V1.5H9.5C10.8805 1.5 12 2.6195 12 4ZM12 9C12 10.93 10.4295 12.5 8.5 12.5C6.5705 12.5 5 10.93 5 9C5 7.07 6.5705 5.5 8.5 5.5C10.4295 5.5 12 7.07 12 9ZM9.5 9.293L9 8.793V8C9 7.724 8.776 7.5 8.5 7.5C8.224 7.5 8 7.724 8 8L8 9C8 9.1325 8.0525 9.26 8.1465 9.3535L8.793 10C8.988 10.195 9.305 10.195 9.5 10C9.695 9.805 9.695 9.488 9.5 9.293ZM4 9C4 7.5855 4.654 6.325 5.6745 5.5L0 5.5L0 10C0 11.3805 1.1195 12.5 2.5 12.5L5.6745 12.5C4.654 11.675 4 10.4145 4 9Z" fill="white"/>
</g>
<defs>
<clipPath id="clip0_496_3987">
<rect width="12" height="12" fill="white" transform="translate(0 0.5)"/>
</clipPath>
</defs>
</svg>
