<svg width="27" height="27" viewBox="0 0 27 27" fill="none" xmlns="http://www.w3.org/2000/svg">
<g id="fi-sr-file-image" clip-path="url(#clip0_496_4029)">
<path id="Vector" d="M15.75 7.875L15.75 0.5175C16.7771 0.90675 17.7221 1.50637 18.5231 2.30625L22.4426 6.228C23.2436 7.02787 23.8433 7.97288 24.2325 9L16.875 9C16.254 9 15.75 8.49487 15.75 7.875ZM10.1948 16.902C11.7067 15.3889 14.1683 15.3889 15.6803 16.902L16.3721 17.5939C16.9594 18.18 17.9145 18.18 18.5029 17.5939L24.7297 11.367C24.7275 11.3276 24.7264 11.2882 24.7241 11.25L16.8761 11.25C15.0154 11.25 13.5011 9.73575 13.5011 7.875L13.5011 0.027C13.32 0.014625 13.1389 0 12.9555 0L7.87612 0C4.77338 0 2.25 2.52338 2.25 5.625L2.25 21.375C2.25 22.3717 2.53238 23.2954 2.98913 24.1076L10.1948 16.902ZM8.4375 10.125C9.369 10.125 10.125 10.881 10.125 11.8125C10.125 12.744 9.369 13.5 8.4375 13.5C7.506 13.5 6.75 12.744 6.75 11.8125C6.75 10.881 7.506 10.125 8.4375 10.125ZM20.0936 19.1846C18.6289 20.6494 16.2461 20.6494 14.7814 19.1846L14.0895 18.4928C13.455 17.8582 12.4211 17.8582 11.7855 18.4928L4.46287 25.8154C5.41237 26.5466 6.58687 27 7.875 27L19.125 27C22.2266 27 24.75 24.4766 24.75 21.375V14.5282L20.0936 19.1846Z" fill="#CDCDCD"/>
</g>
<defs>
<clipPath id="clip0_496_4029">
<rect width="27" height="27" fill="white"/>
</clipPath>
</defs>
</svg>
