<svg width="21" height="20" viewBox="0 0 21 20" fill="none" xmlns="http://www.w3.org/2000/svg">
<path d="M3.955 15.834H1.33333C0.8725 15.834 0.5 16.2065 0.5 16.6673C0.5 17.1282 0.8725 17.5007 1.33333 17.5007H3.955C4.31417 18.704 5.43167 19.584 6.75 19.584C8.06833 19.584 9.18583 18.704 9.545 17.5007H19.6667C20.1275 17.5007 20.5 17.1282 20.5 16.6673C20.5 16.2065 20.1275 15.834 19.6667 15.834L9.545 15.834C9.18583 14.6307 8.06833 13.7507 6.75 13.7507C5.43167 13.7507 4.31417 14.6307 3.955 15.834ZM11.455 9.16732H1.33333C0.8725 9.16732 0.5 9.53982 0.5 10.0007C0.5 10.4615 0.8725 10.834 1.33333 10.834H11.455C11.8142 12.0373 12.9317 12.9173 14.25 12.9173C15.5683 12.9173 16.6858 12.0373 17.045 10.834H19.6667C20.1275 10.834 20.5 10.4615 20.5 10.0007C20.5 9.53982 20.1275 9.16732 19.6667 9.16732H17.045C16.6858 7.96398 15.5683 7.08398 14.25 7.08398C12.9317 7.08398 11.8142 7.96398 11.455 9.16732ZM6.75 0.417317C5.43167 0.417317 4.31417 1.29732 3.955 2.50065H1.33333C0.8725 2.50065 0.5 2.87315 0.5 3.33398C0.5 3.79482 0.8725 4.16732 1.33333 4.16732H3.955C4.31417 5.37065 5.43167 6.25065 6.75 6.25065C8.06833 6.25065 9.18583 5.37065 9.545 4.16732L19.6667 4.16732C20.1275 4.16732 20.5 3.79482 20.5 3.33398C20.5 2.87315 20.1275 2.50065 19.6667 2.50065H9.545C9.18583 1.29732 8.06833 0.417317 6.75 0.417317Z" fill="white"/>
</svg>
