<svg width="38" height="34" viewBox="0 0 38 34" fill="none" xmlns="http://www.w3.org/2000/svg">
<g id="fi-sr-fire-flame-curved">
<g clip-path="url(#clip0_496_4448)">
<path id="Vector" d="M19.0003 33.9995H18.9101C10.2302 33.9995 3.16699 27.6444 3.16699 19.8329C3.16699 17.1001 4.22149 14.067 6.13416 11.289C6.87991 10.2052 8.30808 9.69378 9.68241 10.0196C11.0583 10.344 12.0162 11.4179 12.0653 12.69C12.2173 16.5717 13.2576 21.2099 17.3505 21.251C19.0621 21.2637 20.4174 20.1927 20.5599 18.8044C20.7087 17.3509 20.1213 16.2119 19.3787 14.7711C18.5047 13.0711 17.4154 10.9575 17.4154 7.82803C17.4154 5.40978 17.9617 2.99437 18.5032 1.67262C18.9069 0.690868 19.8585 0.0462845 20.989 -0.0117988C22.1591 -0.0684655 23.2278 0.508118 23.7646 1.46437C25.0344 3.72395 26.8331 5.81212 28.5716 7.83228C31.6939 11.4618 34.9223 15.2145 34.8352 19.8555C34.8352 27.5962 27.7372 33.9514 19.0114 33.9981H19.0019L19.0003 33.9995Z" fill="#006AA9"/>
</g>
</g>
<defs>
<clipPath id="clip0_496_4448">
<rect width="38" height="34" rx="10" fill="white"/>
</clipPath>
</defs>
</svg>
