<svg width="21" height="21" viewBox="0 0 21 21" fill="none" xmlns="http://www.w3.org/2000/svg">
<g id="fi-sr-headphones">
<path id="Vector" d="M18.3746 10.871V9.625C18.3746 7.53642 17.5449 5.53338 16.0681 4.05653C14.5912 2.57969 12.5882 1.75 10.4996 1.75C8.41104 1.75 6.408 2.57969 4.93116 4.05653C3.45431 5.53338 2.62462 7.53642 2.62462 9.625V10.871C1.70689 11.2751 0.955822 11.9822 0.497165 12.8739C0.0385084 13.7657 -0.0999006 14.7879 0.105109 15.7695C0.310119 16.751 0.846103 17.6324 1.62333 18.266C2.40056 18.8996 3.37186 19.247 4.37462 19.25C4.83875 19.25 5.28387 19.0656 5.61206 18.7374C5.94025 18.4092 6.12462 17.9641 6.12462 17.5V12.25C6.12462 11.7859 5.94025 11.3408 5.61206 11.0126C5.28387 10.6844 4.83875 10.5 4.37462 10.5V9.625C4.37462 8.00055 5.01993 6.44263 6.16859 5.29397C7.31725 4.14531 8.87517 3.5 10.4996 3.5C12.1241 3.5 13.682 4.14531 14.8307 5.29397C15.9793 6.44263 16.6246 8.00055 16.6246 9.625V10.5C16.1605 10.5 15.7154 10.6844 15.3872 11.0126C15.059 11.3408 14.8746 11.7859 14.8746 12.25V17.5C14.8746 17.9641 15.059 18.4092 15.3872 18.7374C15.7154 19.0656 16.1605 19.25 16.6246 19.25C17.6274 19.247 18.5987 18.8996 19.3759 18.266C20.1531 17.6324 20.6891 16.751 20.8941 15.7695C21.0991 14.7879 20.9607 13.7657 20.5021 12.8739C20.0434 11.9822 19.2924 11.2751 18.3746 10.871Z" fill="#3284BB"/>
</g>
</svg>
