<svg width="22" height="22" viewBox="0 0 22 22" fill="none" xmlns="http://www.w3.org/2000/svg">
<g id="fi-rr-time-forward" clip-path="url(#clip0_547_2577)">
<path id="Vector" d="M21.0841 10.0833C20.8409 10.0833 20.6078 10.1799 20.4359 10.3518C20.264 10.5237 20.1674 10.7569 20.1674 11C20.1748 13.1315 19.4418 15.1994 18.0935 16.8503C16.7451 18.5012 14.8653 19.6325 12.7753 20.051C10.6853 20.4694 8.51476 20.149 6.63481 19.1445C4.75486 18.1399 3.28215 16.5136 2.46842 14.5435C1.65469 12.5735 1.55045 10.3819 2.17351 8.34351C2.79658 6.30509 4.10827 4.54635 5.88439 3.3679C7.66051 2.18944 9.79079 1.66444 11.9111 1.88262C14.0314 2.10081 16.0101 3.04863 17.5091 4.56408C17.4789 4.57231 17.4483 4.57873 17.4174 4.58333H14.6674C14.4243 4.58333 14.1911 4.67991 14.0192 4.85182C13.8473 5.02373 13.7507 5.25689 13.7507 5.5C13.7507 5.74312 13.8473 5.97627 14.0192 6.14818C14.1911 6.32009 14.4243 6.41667 14.6674 6.41667H17.4174C18.1467 6.41667 18.8462 6.12694 19.3619 5.61121C19.8777 5.09549 20.1674 4.39601 20.1674 3.66667V0.916667C20.1674 0.673552 20.0708 0.440394 19.8989 0.268485C19.727 0.0965771 19.4938 0 19.2507 0C19.0076 0 18.7745 0.0965771 18.6025 0.268485C18.4306 0.440394 18.3341 0.673552 18.3341 0.916667V2.80958C16.4572 1.13165 14.0614 0.148653 11.5469 0.0248441C9.03244 -0.0989645 6.55163 0.643919 4.51905 2.12936C2.48646 3.61479 1.02522 5.7528 0.379513 8.18611C-0.266196 10.6194 -0.057262 13.2006 0.971402 15.4984C2.00007 17.7962 3.78615 19.6713 6.03118 20.8105C8.27622 21.9497 10.8442 22.2839 13.306 21.7573C15.7679 21.2307 17.9744 19.8752 19.5569 17.9172C21.1395 15.9593 22.0021 13.5175 22.0007 11C22.0007 10.7569 21.9041 10.5237 21.7322 10.3518C21.5603 10.1799 21.3272 10.0833 21.0841 10.0833Z" fill="#3284BB"/>
<path id="Vector_2" d="M11.0007 5.5C10.7575 5.5 10.5244 5.59658 10.3525 5.76849C10.1806 5.94039 10.084 6.17355 10.084 6.41667V11C10.084 11.2431 10.1806 11.4762 10.3526 11.6481L13.1026 14.3981C13.2755 14.5651 13.507 14.6575 13.7474 14.6554C13.9877 14.6533 14.2176 14.5569 14.3876 14.3869C14.5575 14.217 14.6539 13.987 14.656 13.7467C14.6581 13.5064 14.5657 13.2748 14.3987 13.1019L11.9173 10.6205V6.41667C11.9173 6.17355 11.8207 5.94039 11.6488 5.76849C11.4769 5.59658 11.2438 5.5 11.0007 5.5Z" fill="#3284BB"/>
</g>
<defs>
<clipPath id="clip0_547_2577">
<rect width="22" height="22" fill="white"/>
</clipPath>
</defs>
</svg>
