<svg width="22" height="22" viewBox="0 0 22 22" fill="none" xmlns="http://www.w3.org/2000/svg">
<g id="fi-rr-time-forward" clip-path="url(#clip0_547_2296)">
<path id="Vector" d="M21.0831 10.0833C20.84 10.0833 20.6068 10.1799 20.4349 10.3518C20.263 10.5237 20.1664 10.7569 20.1664 11C20.1739 13.1315 19.4408 15.1994 18.0925 16.8503C16.7442 18.5012 14.8643 19.6325 12.7743 20.051C10.6843 20.4694 8.51379 20.149 6.63383 19.1445C4.75388 18.1399 3.28118 16.5136 2.46744 14.5435C1.65371 12.5735 1.54947 10.3819 2.17254 8.34351C2.7956 6.30509 4.1073 4.54635 5.88342 3.3679C7.65953 2.18944 9.78981 1.66444 11.9101 1.88262C14.0304 2.10081 16.0092 3.04863 17.5081 4.56408C17.4779 4.57231 17.4473 4.57873 17.4164 4.58333H14.6664C14.4233 4.58333 14.1901 4.67991 14.0182 4.85182C13.8463 5.02373 13.7497 5.25689 13.7497 5.5C13.7497 5.74312 13.8463 5.97627 14.0182 6.14818C14.1901 6.32009 14.4233 6.41667 14.6664 6.41667H17.4164C18.1458 6.41667 18.8452 6.12694 19.361 5.61121C19.8767 5.09549 20.1664 4.39601 20.1664 3.66667V0.916667C20.1664 0.673552 20.0698 0.440394 19.8979 0.268485C19.726 0.0965771 19.4929 0 19.2497 0C19.0066 0 18.7735 0.0965771 18.6016 0.268485C18.4297 0.440394 18.3331 0.673552 18.3331 0.916667V2.80958C16.4563 1.13165 14.0604 0.148653 11.5459 0.0248441C9.03146 -0.0989645 6.55066 0.643919 4.51807 2.12936C2.48548 3.61479 1.02424 5.7528 0.378536 8.18611C-0.267173 10.6194 -0.0582385 13.2006 0.970426 15.4984C1.99909 17.7962 3.78517 19.6713 6.03021 20.8105C8.27524 21.9497 10.8432 22.2839 13.3051 21.7573C15.7669 21.2307 17.9734 19.8752 19.556 17.9172C21.1385 15.9593 22.0011 13.5175 21.9997 11C21.9997 10.7569 21.9032 10.5237 21.7313 10.3518C21.5594 10.1799 21.3262 10.0833 21.0831 10.0833Z" fill="#CDCDCD"/>
<path id="Vector_2" d="M10.9997 5.5C10.7566 5.5 10.5234 5.59658 10.3515 5.76849C10.1796 5.94039 10.083 6.17355 10.083 6.41667V11C10.0831 11.2431 10.1797 11.4762 10.3516 11.6481L13.1016 14.3981C13.2745 14.5651 13.506 14.6575 13.7464 14.6554C13.9867 14.6533 14.2166 14.5569 14.3866 14.3869C14.5565 14.217 14.653 13.987 14.655 13.7467C14.6571 13.5064 14.5647 13.2748 14.3978 13.1019L11.9163 10.6205V6.41667C11.9163 6.17355 11.8198 5.94039 11.6479 5.76849C11.4759 5.59658 11.2428 5.5 10.9997 5.5Z" fill="#CDCDCD"/>
</g>
<defs>
<clipPath id="clip0_547_2296">
<rect width="22" height="22" fill="white"/>
</clipPath>
</defs>
</svg>
