<svg width="22" height="22" viewBox="0 0 22 22" fill="none" xmlns="http://www.w3.org/2000/svg">
<path d="M11 13.7441C9.48123 13.7441 8.25 14.9754 8.25 16.4941V21.9941H13.75V16.4941C13.75 14.9754 12.5188 13.7441 11 13.7441Z" fill="#BDBDBD"/>
<path d="M15.5833 16.4941V21.9941H19.25C20.7688 21.9941 22 20.7629 22 19.2441V10.8832C22.0002 10.407 21.8151 9.94937 21.4839 9.60721L13.6941 1.18577C12.3196 -0.301382 9.99982 -0.392691 8.51267 0.981794C8.44203 1.04711 8.37396 1.11513 8.3087 1.18577L0.532598 9.60446C0.19134 9.94804 -0.000128841 10.4127 6.50474e-08 10.897V19.2441C6.50474e-08 20.7629 1.23123 21.9941 2.75 21.9941H6.41665V16.4941C6.4338 13.9945 8.45191 11.9533 10.8885 11.8946C13.4067 11.8338 15.5641 13.9098 15.5833 16.4941Z" fill="#3284BB"/>
<path d="M11 13.7441C9.48123 13.7441 8.25 14.9754 8.25 16.4941V21.9941H13.75V16.4941C13.75 14.9754 12.5188 13.7441 11 13.7441Z" fill="#3284BB"/>
</svg>
