<svg width="15" height="15" viewBox="0 0 15 15" fill="none" xmlns="http://www.w3.org/2000/svg">
<g id="fi-rr-marker" clip-path="url(#clip0_547_2241)">
<path id="Vector" d="M7.5 3.75C7.00555 3.75 6.5222 3.89662 6.11108 4.17133C5.69995 4.44603 5.37952 4.83648 5.1903 5.29329C5.00108 5.75011 4.95157 6.25277 5.04804 6.73773C5.1445 7.22268 5.3826 7.66814 5.73223 8.01777C6.08187 8.3674 6.52732 8.6055 7.01228 8.70196C7.49723 8.79843 7.9999 8.74892 8.45671 8.5597C8.91353 8.37048 9.30397 8.05005 9.57868 7.63893C9.85338 7.2278 10 6.74445 10 6.25C10 5.58696 9.73661 4.95107 9.26777 4.48223C8.79893 4.01339 8.16304 3.75 7.5 3.75ZM7.5 7.5C7.25277 7.5 7.0111 7.42669 6.80554 7.28934C6.59998 7.15199 6.43976 6.95676 6.34515 6.72835C6.25054 6.49995 6.22579 6.24861 6.27402 6.00614C6.32225 5.76366 6.4413 5.54093 6.61612 5.36612C6.79093 5.1913 7.01366 5.07225 7.25614 5.02402C7.49861 4.97579 7.74995 5.00054 7.97836 5.09515C8.20676 5.18976 8.40199 5.34998 8.53934 5.55554C8.67669 5.7611 8.75 6.00277 8.75 6.25C8.75 6.58152 8.61831 6.89946 8.38388 7.13388C8.14946 7.3683 7.83152 7.5 7.5 7.5Z" fill="#44484B"/>
<path id="Vector_2" d="M7.5002 14.9993C6.97391 15.002 6.45464 14.8786 5.98586 14.6393C5.51708 14.4001 5.11244 14.052 4.80582 13.6243C2.42395 10.3387 1.21582 7.86867 1.21582 6.28242C1.21582 4.6157 1.87792 3.01725 3.05647 1.8387C4.23502 0.660149 5.83348 -0.00195312 7.5002 -0.00195312C9.16692 -0.00195312 10.7654 0.660149 11.9439 1.8387C13.1225 3.01725 13.7846 4.6157 13.7846 6.28242C13.7846 7.86867 12.5764 10.3387 10.1946 13.6243C9.88795 14.052 9.48331 14.4001 9.01453 14.6393C8.54575 14.8786 8.02648 15.002 7.5002 14.9993ZM7.5002 1.36242C6.19546 1.36391 4.94458 1.88288 4.02199 2.80547C3.0994 3.72806 2.58043 4.97893 2.57895 6.28367C2.57895 7.53992 3.76207 9.86305 5.90957 12.8249C6.09188 13.076 6.33105 13.2804 6.60752 13.4213C6.88398 13.5623 7.18988 13.6357 7.5002 13.6357C7.81051 13.6357 8.11641 13.5623 8.39288 13.4213C8.66934 13.2804 8.90851 13.076 9.09082 12.8249C11.2383 9.86305 12.4214 7.53992 12.4214 6.28367C12.42 4.97893 11.901 3.72806 10.9784 2.80547C10.0558 1.88288 8.80494 1.36391 7.5002 1.36242Z" fill="#44484B"/>
</g>
<defs>
<clipPath id="clip0_547_2241">
<rect width="15" height="15" fill="white"/>
</clipPath>
</defs>
</svg>
