<svg width="21" height="21" viewBox="0 0 21 21" fill="none" xmlns="http://www.w3.org/2000/svg">
<g id="fi-rr-arrow-right-to-bracket" clip-path="url(#clip0_496_4357)">
<path id="Vector" d="M21 4.375V16.625C21 19.04 19.04 21 16.625 21H14C13.5188 21 13.125 20.6063 13.125 20.125C13.125 19.6437 13.5188 19.25 14 19.25H16.625C18.0688 19.25 19.25 18.0688 19.25 16.625V4.375C19.25 2.93125 18.0688 1.75 16.625 1.75H14C13.5188 1.75 13.125 1.35625 13.125 0.875C13.125 0.39375 13.5188 0 14 0H16.625C19.04 0 21 1.96 21 4.375ZM15.75 10.5C15.75 9.8 15.4787 9.14375 14.9887 8.65375L11.13 4.6375C10.7975 4.2875 10.2375 4.27875 9.89625 4.61125C9.54625 4.94375 9.5375 5.50375 9.87 5.845L13.5013 9.61625H0.875C0.39375 9.61625 0 10.01 0 10.4913C0 10.9725 0.39375 11.3663 0.875 11.3663H13.4925L9.86125 15.1375C9.52875 15.4875 9.5375 16.0387 9.8875 16.3713C10.0538 16.5375 10.2725 16.6162 10.4913 16.6162C10.7188 16.6162 10.9462 16.5287 11.1213 16.345L14.9713 12.3462C15.47 11.8475 15.7413 11.1912 15.7413 10.4913L15.75 10.5Z" fill="#186599"/>
</g>
<defs>
<clipPath id="clip0_496_4357">
<rect width="21" height="21" fill="white"/>
</clipPath>
</defs>
</svg>
