<svg width="19" height="22" viewBox="0 0 19 22" fill="none" xmlns="http://www.w3.org/2000/svg">
<path d="M14.083 0H4.91634C2.38909 0 0.333008 2.05608 0.333008 4.58333V17.4167C0.333008 19.9439 2.38909 22 4.91634 22H14.083C16.6103 22 18.6663 19.9439 18.6663 17.4167V4.58333C18.6663 2.05608 16.6103 0 14.083 0ZM5.37468 4.125C6.13368 4.125 6.74968 4.741 6.74968 5.5C6.74968 6.259 6.13368 6.875 5.37468 6.875C4.61568 6.875 3.99968 6.259 3.99968 5.5C3.99968 4.741 4.61568 4.125 5.37468 4.125ZM5.37468 17.875C4.61568 17.875 3.99968 17.259 3.99968 16.5C3.99968 15.741 4.61568 15.125 5.37468 15.125C6.13368 15.125 6.74968 15.741 6.74968 16.5C6.74968 17.259 6.13368 17.875 5.37468 17.875ZM6.62593 12.3943C6.33351 12.6867 5.94668 12.8333 5.55801 12.8333C5.16659 12.8333 4.77426 12.6848 4.47451 12.3869L3.85026 11.7865C3.48542 11.4363 3.47351 10.8552 3.82459 10.4903C4.17568 10.1246 4.75684 10.1145 5.12076 10.4647L5.55343 10.8808L7.26393 9.21708C7.62693 8.86417 8.20718 8.8715 8.56009 9.23542C8.91301 9.59842 8.90476 10.1787 8.54176 10.5316L6.62501 12.3961L6.62593 12.3943ZM14.083 17.4167H9.49968C8.99368 17.4167 8.58301 17.006 8.58301 16.5C8.58301 15.994 8.99368 15.5833 9.49968 15.5833H14.083C14.589 15.5833 14.9997 15.994 14.9997 16.5C14.9997 17.006 14.589 17.4167 14.083 17.4167ZM14.083 11.9167H11.333C10.827 11.9167 10.4163 11.506 10.4163 11C10.4163 10.494 10.827 10.0833 11.333 10.0833H14.083C14.589 10.0833 14.9997 10.494 14.9997 11C14.9997 11.506 14.589 11.9167 14.083 11.9167ZM14.083 6.41667H9.49968C8.99368 6.41667 8.58301 6.006 8.58301 5.5C8.58301 4.994 8.99368 4.58333 9.49968 4.58333H14.083C14.589 4.58333 14.9997 4.994 14.9997 5.5C14.9997 6.006 14.589 6.41667 14.083 6.41667Z" fill="#3284BB"/>
</svg>
