<svg width="19" height="22" viewBox="0 0 19 22" fill="none" xmlns="http://www.w3.org/2000/svg">
<path d="M9.234 10.7533L7.60475 12.3326C7.3265 12.6109 6.95725 12.7509 6.58712 12.7509C6.2135 12.7509 5.83812 12.6083 5.552 12.323L4.95613 11.7507C4.60788 11.4156 4.5965 10.8618 4.93162 10.5135C5.26675 10.1653 5.8215 10.1548 6.16887 10.489L6.58275 10.8871L8.016 9.49762C8.3625 9.1625 8.91638 9.1695 9.25325 9.51688C9.58925 9.86338 9.58138 10.4164 9.234 10.7533ZM13 15.375H10.375C9.892 15.375 9.5 15.767 9.5 16.25C9.5 16.733 9.892 17.125 10.375 17.125H13C13.483 17.125 13.875 16.733 13.875 16.25C13.875 15.767 13.483 15.375 13 15.375ZM13 4.875H10.375C9.892 4.875 9.5 5.267 9.5 5.75C9.5 6.233 9.892 6.625 10.375 6.625H13C13.483 6.625 13.875 6.233 13.875 5.75C13.875 5.267 13.483 4.875 13 4.875ZM13 10.125H11.25C10.767 10.125 10.375 10.517 10.375 11C10.375 11.483 10.767 11.875 11.25 11.875H13C13.483 11.875 13.875 11.483 13.875 11C13.875 10.517 13.483 10.125 13 10.125ZM6.4375 14.9375C5.713 14.9375 5.125 15.5255 5.125 16.25C5.125 16.9745 5.713 17.5625 6.4375 17.5625C7.162 17.5625 7.75 16.9745 7.75 16.25C7.75 15.5255 7.162 14.9375 6.4375 14.9375ZM6.4375 7.0625C7.162 7.0625 7.75 6.4745 7.75 5.75C7.75 5.0255 7.162 4.4375 6.4375 4.4375C5.713 4.4375 5.125 5.0255 5.125 5.75C5.125 6.4745 5.713 7.0625 6.4375 7.0625ZM18.25 4.875V17.125C18.25 19.5374 16.2874 21.5 13.875 21.5H5.125C2.71263 21.5 0.75 19.5374 0.75 17.125V4.875C0.75 2.46263 2.71263 0.5 5.125 0.5H13.875C16.2874 0.5 18.25 2.46263 18.25 4.875ZM16.5 4.875C16.5 3.42775 15.3223 2.25 13.875 2.25H5.125C3.67775 2.25 2.5 3.42775 2.5 4.875V17.125C2.5 18.5723 3.67775 19.75 5.125 19.75H13.875C15.3223 19.75 16.5 18.5723 16.5 17.125V4.875Z" fill="#BDBDBD"/>
</svg>
