<svg width="151" height="51" viewBox="0 0 151 51" fill="none" xmlns="http://www.w3.org/2000/svg">
<path d="M12.6138 0C9.26903 -3.89834e-08 6.06117 1.37572 3.69585 3.82457C1.33053 6.27343 0.00144813 9.59485 0.000946278 13.0583V37.7798C-0.0195012 39.5082 0.291613 41.2236 0.916251 42.8266C1.54089 44.4296 2.46662 45.8883 3.63978 47.118C4.81294 48.3477 6.21018 49.3241 7.75049 49.9905C9.29081 50.6569 10.9436 51 12.6129 51C14.2823 51 15.935 50.6569 17.4753 49.9905C19.0156 49.3241 20.4129 48.3477 21.586 47.118C22.7592 45.8883 23.6849 44.4296 24.3096 42.8266C24.9342 41.2236 25.2453 39.5082 25.2249 37.7798V13.0583C25.2249 9.59503 23.8962 6.2736 21.5312 3.82469C19.1662 1.37578 15.9585 0 12.6138 0ZM22.0759 37.7798C22.0759 40.3783 21.079 42.8703 19.3045 44.7077C17.53 46.5452 15.1233 47.5774 12.6138 47.5774C10.1044 47.5774 7.69765 46.5452 5.92318 44.7077C4.1487 42.8703 3.15181 40.3783 3.15181 37.7798V13.0583C3.15181 10.4598 4.1487 7.96774 5.92318 6.13033C7.69765 4.29291 10.1044 3.26066 12.6138 3.26066C15.1233 3.26066 17.53 4.29291 19.3045 6.13033C21.079 7.96774 22.0759 10.4598 22.0759 13.0583V37.7798Z" fill="#186599"/>
<path d="M12.843 5.11643C11.7831 5.08604 10.7282 5.27601 9.74044 5.67509C8.75271 6.07418 7.85229 6.67428 7.09241 7.43992C6.33253 8.20555 5.72863 9.12119 5.31639 10.1327C4.90416 11.1442 4.69198 12.231 4.69238 13.3288V22.8835C4.69238 25.0621 5.52818 27.1514 7.0159 28.6919C8.50362 30.2324 10.5214 31.0978 12.6254 31.0978C14.729 31.0973 16.7463 30.2317 18.2336 28.6912C19.7209 27.1508 20.5564 25.0617 20.5564 22.8835V13.4934C20.5508 9.02177 17.1634 5.23988 12.843 5.11643ZM12.6197 28.4152C11.2028 28.4152 9.844 27.8324 8.84213 26.795C7.84026 25.7576 7.27741 24.3506 7.27741 22.8835V13.2073C7.27741 11.7402 7.84026 10.3332 8.84213 9.29579C9.844 8.25838 11.2028 7.67558 12.6197 7.67558C14.0365 7.67558 15.3954 8.25838 16.3972 9.29579C17.3991 10.3332 17.962 11.7402 17.962 13.2073V22.8835C17.962 24.3506 17.3991 25.7576 16.3972 26.795C15.3954 27.8324 14.0365 28.4152 12.6197 28.4152Z" fill="#54C7EF"/>
<path d="M17.9601 37.6177V37.7235C17.9601 40.7666 15.6589 43.3767 12.72 43.4316C12.0104 43.4457 11.3053 43.3131 10.6458 43.0418C9.98627 42.7704 9.3856 42.3657 8.87888 41.8512C8.37216 41.3367 7.96955 40.7228 7.69458 40.0454C7.4196 39.368 7.27779 38.6406 7.27741 37.9057V37.6177C7.27741 37.2622 7.14104 36.9213 6.89829 36.6699C6.65554 36.4186 6.32631 36.2773 5.98301 36.2773C5.64052 36.2789 5.31254 36.4207 5.07072 36.6719C4.82889 36.923 4.69288 37.263 4.69238 37.6177V37.7039C4.69238 42.2461 8.17441 46.0868 12.5629 46.1181C13.6092 46.1256 14.6466 45.9187 15.6154 45.5094C16.5842 45.1001 17.4653 44.4965 18.2079 43.7332C18.9505 42.9699 19.5399 42.0621 19.9424 41.0619C20.3448 40.0618 20.5522 38.9892 20.5527 37.9057V37.6177C20.5527 37.2622 20.4163 36.9213 20.1735 36.6699C19.9308 36.4186 19.6016 36.2773 19.2583 36.2773C19.088 36.2768 18.9192 36.3111 18.7617 36.3783C18.6043 36.4454 18.4611 36.544 18.3405 36.6685C18.2199 36.793 18.1242 36.941 18.059 37.1038C17.9937 37.2667 17.9601 37.4413 17.9601 37.6177Z" fill="#186599"/>
<path d="M4.69037 15.6484H7.28108V34.7304C7.28108 34.8681 7.22824 35.0001 7.13419 35.0975C7.04015 35.1949 6.91259 35.2496 6.77959 35.2496H5.18997C5.05696 35.2496 4.92941 35.1949 4.83536 35.0975C4.74131 35.0001 4.68848 34.8681 4.68848 34.7304V15.6484H4.69037Z" fill="#54C7EF"/>
<path d="M4.69238 24.3066C4.79884 25.2229 5.08324 26.1074 5.52847 26.9068C5.9737 27.7063 6.57055 28.4042 7.28309 28.9586V30.2381C7.28309 30.2381 4.91569 28.2316 4.69238 24.3066Z" fill="#38B3D2"/>
<path d="M19.1972 35.7272C19.888 35.7272 20.4481 35.1473 20.4481 34.432C20.4481 33.7166 19.888 33.1367 19.1972 33.1367C18.5063 33.1367 17.9463 33.7166 17.9463 34.432C17.9463 35.1473 18.5063 35.7272 19.1972 35.7272Z" fill="#186599"/>
<path d="M47.4128 30.0605H45.5176V31.6433H47.4128V30.0605Z" fill="#54C7EF"/>
<path d="M69.6176 40.7891H67.9912V42.3718H69.6176V40.7891Z" fill="#54C7EF"/>
<path d="M67.3256 40.7891H65.6992V42.3718H67.3256V40.7891Z" fill="#54C7EF"/>
<path d="M126.175 28.8613H124.549V30.4441H126.175V28.8613Z" fill="#54C7EF"/>
<path d="M148.339 32.015V36.1349C148.339 36.6705 148.185 36.9933 147.86 37.1272C147.43 37.2325 146.989 37.2729 146.548 37.2473H128.026C127.585 37.2727 127.144 37.2322 126.714 37.1272C126.386 36.9933 126.235 36.6534 126.235 36.1349V32.015H124.439V36.1349C124.439 36.6534 124.285 36.9933 123.96 37.1272C123.53 37.2325 123.089 37.2729 122.648 37.2473H111.831C111.458 37.2618 111.084 37.2469 110.713 37.2027C110.532 37.1698 110.364 37.08 110.233 36.945C110.102 36.8101 110.013 36.6365 109.979 36.4474V32.0013H108.156V36.1727C108.158 36.3408 108.117 36.5065 108.037 36.6526C107.958 36.7986 107.842 36.9198 107.703 37.0036C107.401 37.1917 107.051 37.2791 106.7 37.2542C106.348 37.2629 106.001 37.1703 105.696 36.9864C105.557 36.911 105.439 36.7968 105.357 36.6564C105.275 36.5159 105.231 36.3546 105.231 36.1899V32.9935H103.575V36.1899C103.575 36.8559 103.126 37.1958 102.204 37.2542C101.869 37.2785 101.533 37.2233 101.221 37.0928C101.089 37.0514 100.971 36.9749 100.876 36.8707C100.782 36.7665 100.715 36.6383 100.683 36.4989C100.683 35.6268 100.666 34.8715 100.666 34.2638V32.0013H98.8794V35.5067C98.8794 36.2482 98.8106 36.7358 98.5811 36.9452C98.3515 37.1546 97.8761 37.2405 97.099 37.2405H85.79C85.4949 37.2168 85.2073 37.1316 84.944 36.9898C84.8175 36.8919 84.7172 36.7615 84.6529 36.6111C84.5886 36.4608 84.5624 36.2956 84.5768 36.1315V28.1973H82.7504V36.1452C82.7674 36.3053 82.7439 36.4673 82.6823 36.6149C82.6208 36.7625 82.5233 36.8906 82.3996 36.9864C82.1356 37.1296 81.8468 37.216 81.5504 37.2405H70.3397C69.8993 37.2683 69.4573 37.2278 69.0282 37.1203C68.7003 36.9864 68.5331 36.6637 68.5331 36.1281V32.0082H66.7493V36.1281C66.7493 36.6637 66.5788 36.9864 66.2542 37.1203C65.8247 37.2256 65.3831 37.2661 64.9426 37.2405H52.8106C52.424 37.2507 52.0371 37.2312 51.6532 37.1821C51.4608 37.1262 51.2878 37.0137 51.1547 36.8579C51.0216 36.7021 50.934 36.5096 50.9023 36.3032C50.8552 36.0904 50.8321 35.8727 50.8335 35.6543V31.9704H48.994V39.3279C48.994 40.2583 48.4169 40.8213 47.2693 41.0136C46.1971 41.1921 45.3609 41.0136 44.7839 40.4952C44.6465 40.3394 44.5427 40.1546 44.4793 39.9532C44.416 39.7519 44.3946 39.5386 44.4166 39.3279V34.2055H42.5771V39.3279C42.5771 40.4814 42.846 41.2951 43.3969 41.7689C44.0008 42.246 44.7125 42.5512 45.4626 42.6547C46.2778 42.8073 47.114 42.7875 47.9218 42.5963C48.692 42.4392 49.4032 42.0544 49.9711 41.4874C50.2536 41.2121 50.4774 40.8774 50.6277 40.5053C50.778 40.1331 50.8515 39.7319 50.8433 39.3279V38.7648C51.2827 39.0106 51.7715 39.1436 52.2696 39.1528H64.9426C66.1165 39.1528 67.0084 38.8438 67.6445 38.2052C68.271 38.7931 69.0789 39.1246 69.92 39.139H82.1307V39.1184C82.6703 39.1043 83.1988 38.9547 83.6718 38.6824C84.2372 38.9976 84.871 39.1537 85.5113 39.1356H97.7318V39.115C98.6401 39.0429 99.2565 38.7717 99.5713 38.2636C100.011 38.8403 100.771 39.1356 101.867 39.1356C102.456 39.1588 103.045 39.0692 103.604 38.8713C103.96 38.7562 104.26 38.5016 104.44 38.1606C104.618 38.512 104.915 38.7805 105.273 38.9124C105.824 39.0996 106.403 39.1844 106.982 39.1631C108.07 39.1631 108.834 38.9571 109.277 38.5279L109.431 38.3803C109.782 38.8369 110.388 39.0978 111.257 39.1528H123.468V39.091C124.156 39.0105 124.801 38.6999 125.308 38.2052C125.889 38.7743 126.647 39.1056 127.442 39.139H147.243V39.0944C147.88 39.0336 148.49 38.7966 149.011 38.4078C149.339 38.1361 149.6 37.7854 149.771 37.3855C149.943 36.9856 150.019 36.5484 149.994 36.1109V31.991L148.339 32.015Z" fill="#54C7EF"/>
<path d="M148.987 40.7891H147.36V42.3718H148.987V40.7891Z" fill="#54C7EF"/>
<path d="M48.0864 19.2562V24.247C48.0864 25.2236 48.1482 25.8375 48.2719 26.0887C48.4108 26.3598 48.6437 26.5745 48.9297 26.6949C49.485 26.8822 50.0735 26.9591 50.6601 26.921V27.4126H41.2256V26.921C41.8183 26.9616 42.4132 26.8824 42.9728 26.6884C43.2495 26.5606 43.4749 26.3475 43.6137 26.0821C43.7374 25.8375 43.7992 25.2258 43.7992 24.247V12.5516C43.7992 11.5751 43.7374 10.9601 43.6137 10.7067C43.4749 10.4398 43.2464 10.2271 42.9661 10.1037C42.4075 9.91513 41.8155 9.83821 41.2256 9.87762V9.38281H49.3209C51.9879 9.38281 53.8993 9.84486 55.0552 10.769C55.6024 11.1737 56.0447 11.697 56.3469 12.2973C56.6491 12.8975 56.8027 13.558 56.7957 14.2261C56.8204 15.3299 56.4198 16.4028 55.6724 17.2344C54.8519 18.1058 53.7676 18.7014 52.576 18.9351C51.6922 19.1492 50.1957 19.2562 48.0864 19.2562ZM48.0864 10.4085V18.2175C48.3866 18.2175 48.616 18.2437 48.761 18.2437C49.8741 18.2437 50.732 17.9225 51.3347 17.2802C51.9373 16.638 52.2386 15.6418 52.2386 14.2917C52.2386 12.9547 51.9373 11.9716 51.3347 11.3424C50.7309 10.7231 49.8337 10.4118 48.6362 10.4118L48.0864 10.4085Z" fill="#186599"/>
<path d="M67.4456 19.9752H60.9964C61.0748 21.7201 61.4876 23.0979 62.2348 24.1088C62.4789 24.4698 62.7942 24.7629 63.1561 24.9653C63.5181 25.1676 63.9169 25.2738 64.3216 25.2755C64.8145 25.2831 65.2972 25.1185 65.7025 24.8047C66.2329 24.3376 66.6803 23.7633 67.0214 23.1118L67.4487 23.4199C66.8109 24.8739 66.107 25.9022 65.3371 26.5045C64.5522 27.115 63.6149 27.4324 62.659 27.4116C60.9169 27.4116 59.597 26.6615 58.6991 25.1613C57.9456 23.8151 57.5693 22.2478 57.6185 20.6607C57.6185 18.4704 58.149 16.7255 59.2099 15.4261C59.6663 14.8204 60.2349 14.3327 60.8764 13.9967C61.5179 13.6608 62.2169 13.4847 62.9253 13.4805C63.5173 13.482 64.1017 13.6296 64.6369 13.9126C65.172 14.1957 65.6448 14.6072 66.0214 15.118C66.9048 16.212 67.3795 17.8311 67.4456 19.9752ZM64.3495 19.0335C64.3495 17.5276 64.2783 16.4924 64.1297 15.9177C64.0182 15.433 63.7813 14.9958 63.4485 14.661C63.2496 14.4838 62.9997 14.3939 62.7457 14.4083C62.5278 14.4105 62.3143 14.477 62.1268 14.601C61.9393 14.725 61.7843 14.9022 61.6775 15.1145C61.1822 15.95 60.9345 17.0925 60.9345 18.5419V19.0335H64.3495Z" fill="#186599"/>
<path d="M74.3528 14.6807V16.3303C74.8978 15.716 75.5412 15.1938 76.2575 14.7847C76.8593 14.4645 77.533 14.2985 78.2167 14.3018C78.9712 14.2689 79.7122 14.5072 80.3018 14.9724C80.8437 15.4121 81.2306 16.0094 81.4072 16.679C81.5947 17.6612 81.6689 18.6611 81.6283 19.6596V24.6151C81.6283 25.5941 81.7202 26.2044 81.897 26.4458C82.0739 26.6872 82.4515 26.838 83.0229 26.9017V27.3913H76.4922V26.9017C76.7026 26.8888 76.9071 26.8279 77.0895 26.7237C77.2719 26.6195 77.4272 26.4751 77.5433 26.3016C77.6895 26.077 77.761 25.5137 77.761 24.6252V18.969C77.7906 18.3094 77.7495 17.6486 77.6385 16.9975C77.572 16.7465 77.4238 16.5239 77.2167 16.3638C77.0305 16.217 76.7987 16.1377 76.5603 16.1392C75.7666 16.1392 75.0308 16.698 74.3528 17.8156V24.6352C74.3528 25.5874 74.4423 26.191 74.6215 26.4458C74.7448 26.59 74.8976 26.7069 75.07 26.789C75.2423 26.871 75.4302 26.9163 75.6215 26.9219V27.4114H69.0908V26.9219C69.3097 26.9189 69.5257 26.8715 69.7253 26.7826C69.9248 26.6938 70.1037 26.5655 70.2507 26.4055C70.4072 26.2044 70.4854 25.6143 70.4854 24.6352V17.4535C70.4854 16.4901 70.3958 15.8911 70.2167 15.6564C70.0364 15.4183 69.6623 15.2641 69.0908 15.1937V14.6874L74.3528 14.6807Z" fill="#186599"/>
<path d="M89.5688 14.7142V24.7793C89.5688 25.6713 89.6803 26.2433 89.9034 26.4953C90.1264 26.7461 90.5654 26.8866 91.2166 26.9234V27.4118H83.8408V26.9234C84.0894 26.9341 84.3376 26.8962 84.5694 26.8121C84.8012 26.7279 85.0114 26.5995 85.1865 26.4351C85.3807 26.2277 85.4779 25.6757 85.4779 24.7793V17.3634C85.4779 16.4714 85.3664 15.8994 85.1433 15.6474C84.9166 15.3965 84.4849 15.2561 83.8408 15.2193V14.7142H89.5688ZM87.5215 8.56271C87.8195 8.56182 88.1146 8.61573 88.3901 8.72132C88.6655 8.82691 88.9158 8.98211 89.1265 9.17797C89.3371 9.37383 89.5041 9.6065 89.6176 9.86257C89.7312 10.1186 89.7892 10.3931 89.7882 10.6701C89.7925 10.9458 89.7356 11.2194 89.6211 11.4738C89.5065 11.7281 89.3369 11.9578 89.1226 12.1485C88.9143 12.3462 88.665 12.5023 88.3897 12.6076C88.1145 12.7128 87.8191 12.7649 87.5215 12.7607C86.9251 12.7607 86.3532 12.5404 85.9314 12.1484C85.5097 11.7563 85.2728 11.2245 85.2728 10.6701C85.2678 10.3934 85.3237 10.1186 85.4369 9.86266C85.5501 9.60671 85.7183 9.37494 85.9312 9.18153C86.1364 8.98235 86.3834 8.8246 86.657 8.71813C86.9307 8.61166 87.2249 8.55875 87.5215 8.56271Z" fill="#186599"/>
<path d="M102.302 23.622L102.691 23.968C102.226 25.0252 101.514 25.9208 100.63 26.5589C99.845 27.1143 98.9359 27.4094 98.0076 27.4098C97.2882 27.4362 96.5735 27.2706 95.9223 26.9265C95.2712 26.5825 94.7022 26.07 94.2623 25.4312C93.316 24.0739 92.8198 22.3901 92.8586 20.6679C92.8305 18.9835 93.2775 17.3322 94.1358 15.9495C94.5982 15.1662 95.2315 14.5285 95.9755 14.0968C96.7196 13.6651 97.5497 13.4539 98.3871 13.4831C99.5965 13.4831 100.558 13.8291 101.272 14.5209C101.987 15.2127 102.345 15.9668 102.345 16.8109C102.354 17.0454 102.321 17.2795 102.246 17.4989C102.172 17.7184 102.059 17.9186 101.913 18.0873C101.763 18.2488 101.584 18.3743 101.389 18.4563C101.194 18.5384 100.986 18.5752 100.778 18.5647C100.55 18.5754 100.322 18.5322 100.109 18.4381C99.8968 18.3439 99.7042 18.2009 99.544 18.0181C99.2232 17.6515 99.0247 17.0011 98.9486 16.0672C98.9453 15.6225 98.8192 15.1898 98.5876 14.8288C98.5033 14.7207 98.3994 14.634 98.283 14.5744C98.1665 14.5148 98.04 14.4836 97.912 14.4828C97.7003 14.4933 97.4946 14.5646 97.3147 14.69C97.1348 14.8155 96.9867 14.9907 96.8846 15.1989C96.4507 15.923 96.2327 17.0277 96.2306 18.5128C96.2263 19.7197 96.4047 20.9186 96.7582 22.0585C97.0195 23.0332 97.5185 23.9066 98.1989 24.5802C98.6645 24.9838 99.2395 25.1963 99.8279 25.1821C100.233 25.1828 100.632 25.0723 100.991 24.8604C101.485 24.5296 101.927 24.1114 102.302 23.622Z" fill="#186599"/>
<path d="M109.417 14.7141V24.7793C109.417 25.6713 109.517 26.2433 109.715 26.4953C109.916 26.7461 110.303 26.8866 110.885 26.9234V27.4118H104.329V26.9234C104.55 26.9339 104.77 26.8958 104.975 26.8117C105.181 26.7275 105.367 26.5992 105.522 26.4351C105.695 26.2277 105.781 25.6757 105.781 24.7793V17.3634C105.781 16.4714 105.682 15.8994 105.484 15.6474C105.285 15.3965 104.898 15.256 104.329 15.2192V14.7141H109.417ZM107.601 8.56266C108.066 8.56101 108.517 8.72799 108.877 9.03513C109.237 9.34227 109.484 9.77057 109.576 10.247C109.668 10.7235 109.6 11.2186 109.382 11.648C109.164 12.0774 108.81 12.4144 108.382 12.6017C107.953 12.7891 107.475 12.815 107.03 12.6752C106.585 12.5354 106.2 12.2384 105.941 11.835C105.681 11.4315 105.564 10.9465 105.608 10.4627C105.653 9.97881 105.856 9.52603 106.184 9.18148C106.367 8.98268 106.588 8.82522 106.831 8.7188C107.075 8.61237 107.337 8.55923 107.601 8.56266Z" fill="#186599"/>
<path d="M117.612 8.5625V24.7171C117.612 25.6302 117.711 26.2157 117.909 26.4736C118.111 26.7304 118.498 26.8742 119.08 26.9119V27.4118H112.523V26.9119C112.744 26.9226 112.964 26.8836 113.169 26.7975C113.375 26.7114 113.561 26.58 113.716 26.412C113.889 26.1997 113.975 25.6347 113.975 24.7171V11.2606C113.975 10.3476 113.876 9.76548 113.678 9.51438C113.48 9.261 113.093 9.11376 112.523 9.07952V8.5625H117.612Z" fill="#186599"/>
<path d="M125.626 8.5625V24.7171C125.626 25.6302 125.737 26.2157 125.96 26.4736C126.183 26.7304 126.622 26.8742 127.276 26.9119V27.4118H119.9V26.9119C120.149 26.9229 120.397 26.884 120.629 26.7979C120.86 26.7118 121.07 26.5803 121.245 26.412C121.44 26.1997 121.537 25.6347 121.537 24.7171V11.2606C121.537 10.3476 121.425 9.76548 121.202 9.51438C120.976 9.261 120.544 9.11376 119.9 9.07952V8.5625H125.626Z" fill="#186599"/>
<path d="M134.004 14.7142V24.7793C134.004 25.6713 134.103 26.2433 134.301 26.4953C134.499 26.7461 134.89 26.8866 135.468 26.9234V27.4118H128.912V26.9234C129.133 26.9341 129.354 26.8962 129.56 26.8121C129.766 26.7279 129.953 26.5995 130.108 26.4351C130.281 26.2277 130.367 25.6757 130.367 24.7793V17.3634C130.367 16.4714 130.268 15.8994 130.07 15.6474C129.868 15.3965 129.485 15.2561 128.912 15.2193V14.7142H134.004ZM132.184 8.56271C132.449 8.56182 132.711 8.61573 132.956 8.72132C133.201 8.82691 133.423 8.98211 133.61 9.17797C133.798 9.37383 133.946 9.6065 134.047 9.86257C134.148 10.1186 134.2 10.3931 134.199 10.6701C134.202 10.9458 134.152 11.2194 134.05 11.4738C133.948 11.7281 133.797 11.9578 133.607 12.1485C133.422 12.3465 133.201 12.5029 132.956 12.6081C132.711 12.7134 132.448 12.7653 132.184 12.7607C131.654 12.7607 131.145 12.5404 130.77 12.1484C130.396 11.7563 130.185 11.2245 130.185 10.6701C130.181 10.3934 130.23 10.1186 130.331 9.86266C130.431 9.60671 130.581 9.37494 130.77 9.18153C130.953 8.98235 131.172 8.8246 131.415 8.71813C131.659 8.61166 131.92 8.55875 132.184 8.56271Z" fill="#186599"/>
<path d="M141.551 14.6807V16.3303C142.096 15.716 142.739 15.1938 143.456 14.7847C144.058 14.4645 144.731 14.2985 145.415 14.3018C146.169 14.2689 146.91 14.5072 147.5 14.9724C148.042 15.4121 148.429 16.0094 148.605 16.679C148.793 17.6612 148.867 18.6611 148.827 19.6596V24.6151C148.827 25.5941 148.918 26.2044 149.095 26.4458C149.272 26.6872 149.65 26.838 150.221 26.9017V27.3913H143.69V26.9017C143.901 26.8888 144.105 26.8279 144.288 26.7237C144.47 26.6195 144.625 26.4751 144.742 26.3016C144.888 26.077 144.959 25.5137 144.959 24.6252V18.969C144.989 18.3094 144.948 17.6486 144.837 16.9975C144.77 16.7465 144.622 16.5239 144.415 16.3638C144.229 16.217 143.997 16.1377 143.759 16.1392C142.965 16.1392 142.229 16.698 141.551 17.8156V24.6352C141.551 25.5874 141.641 26.191 141.82 26.4458C141.943 26.59 142.096 26.7069 142.268 26.789C142.441 26.871 142.628 26.9163 142.82 26.9219V27.4114H136.289V26.9219C136.508 26.9189 136.724 26.8715 136.924 26.7826C137.123 26.6938 137.302 26.5655 137.449 26.4055C137.605 26.2044 137.684 25.6143 137.684 24.6352V17.4535C137.684 16.4901 137.594 15.8911 137.415 15.6564C137.235 15.4183 136.86 15.2641 136.289 15.1937V14.6874L141.551 14.6807Z" fill="#186599"/>
</svg>
