<svg width="153" height="204" viewBox="0 0 153 204" fill="none" xmlns="http://www.w3.org/2000/svg">
<path d="M9.44743 170.978V178.059C9.44743 179.444 9.53258 180.315 9.70289 180.672C9.8941 181.056 10.2149 181.361 10.6086 181.532C11.3734 181.798 12.1837 181.907 12.9914 181.853V182.55H0V181.853C0.816164 181.91 1.63538 181.798 2.40598 181.523C2.78701 181.341 3.09734 181.039 3.28849 180.662C3.45879 180.315 3.54395 179.448 3.54395 178.059V161.466C3.54395 160.081 3.45879 159.208 3.28849 158.849C3.09739 158.47 2.78273 158.168 2.39669 157.993C1.62758 157.726 0.812335 157.617 0 157.673L0 156.971H11.1474C14.8199 156.971 17.4519 157.626 19.0435 158.937C19.797 159.511 20.4061 160.254 20.8222 161.106C21.2383 161.957 21.4499 162.894 21.4402 163.842C21.4743 165.408 20.9227 166.93 19.8935 168.11C18.7637 169.346 17.2705 170.191 15.6296 170.523C14.4127 170.827 12.352 170.978 9.44743 170.978ZM9.44743 158.426V169.505C9.86081 169.505 10.1767 169.542 10.3764 169.542C11.9092 169.542 13.0905 169.086 13.9203 168.175C14.7502 167.264 15.1651 165.85 15.1651 163.935C15.1651 162.038 14.7502 160.643 13.9203 159.751C13.0889 158.872 11.8534 158.431 10.2045 158.431L9.44743 158.426Z" fill="#186599"/>
<path d="M38.8436 173.108H29.1686C29.2862 175.452 29.9055 177.302 31.0265 178.659C31.3926 179.144 31.8656 179.538 32.4086 179.81C32.9516 180.081 33.55 180.224 34.157 180.226C34.8965 180.236 35.6206 180.015 36.2286 179.594C37.0244 178.967 37.6955 178.195 38.2073 177.32L38.8482 177.734C37.8914 179.687 36.8355 181.068 35.6805 181.877C34.503 182.696 33.0968 183.123 31.6628 183.095C29.0494 183.095 27.0692 182.087 25.7222 180.073C24.5918 178.265 24.0273 176.16 24.1012 174.029C24.1012 171.088 24.897 168.744 26.4886 167C27.1732 166.186 28.0262 165.531 28.9885 165.08C29.9509 164.629 30.9996 164.392 32.0623 164.387C32.9504 164.389 33.8271 164.587 34.63 164.967C35.4328 165.347 36.142 165.9 36.707 166.586C38.0323 168.055 38.7445 170.229 38.8436 173.108ZM34.1988 171.844C34.1988 169.822 34.092 168.431 33.8691 167.66C33.7019 167.009 33.3465 166.422 32.8472 165.972C32.5488 165.734 32.1739 165.613 31.7929 165.633C31.466 165.636 31.1458 165.725 30.8644 165.892C30.5831 166.058 30.3506 166.296 30.1904 166.581C29.4473 167.703 29.0757 169.237 29.0757 171.184V171.844H34.1988Z" fill="#186599"/>
<path d="M48.2538 164.916V167.204C48.998 166.352 49.8767 165.628 50.8549 165.06C51.6765 164.616 52.5965 164.386 53.5302 164.391C54.5605 164.345 55.5723 164.676 56.3775 165.321C57.1175 165.93 57.6458 166.759 57.887 167.687C58.143 169.049 58.2443 170.435 58.1889 171.82V178.691C58.1889 180.049 58.3143 180.895 58.5559 181.23C58.7974 181.565 59.313 181.774 60.0933 181.862V182.541H51.1753V181.862C51.4626 181.844 51.7418 181.76 51.9909 181.615C52.24 181.471 52.4521 181.271 52.6106 181.03C52.8103 180.719 52.9078 179.937 52.9078 178.705V170.862C52.9483 169.948 52.8922 169.032 52.7406 168.129C52.6497 167.781 52.4474 167.472 52.1647 167.25C51.9103 167.047 51.5939 166.937 51.2682 166.939C50.1845 166.939 49.1797 167.713 48.2538 169.263V178.719C48.2538 180.04 48.3761 180.877 48.6207 181.23C48.7892 181.43 48.9978 181.592 49.2332 181.706C49.4685 181.82 49.7251 181.882 49.9863 181.89V182.569H41.0684V181.89C41.3673 181.886 41.6622 181.82 41.9347 181.697C42.2072 181.574 42.4514 181.396 42.6522 181.174C42.8659 180.895 42.9727 180.077 42.9727 178.719V168.761C42.9727 167.425 42.8504 166.595 42.6058 166.269C42.3596 165.939 41.8487 165.725 41.0684 165.628V164.926L48.2538 164.916Z" fill="#186599"/>
<path d="M69.4111 164.917V178.906C69.4111 180.146 69.555 180.941 69.843 181.291C70.131 181.64 70.6976 181.835 71.5383 181.886V182.565H62.0166V181.886C62.3375 181.901 62.6579 181.848 62.9572 181.732C63.2564 181.615 63.5278 181.436 63.7537 181.208C64.0046 180.919 64.13 180.152 64.13 178.906V168.599C64.13 167.359 63.986 166.564 63.698 166.214C63.4054 165.866 62.848 165.67 62.0166 165.619V164.917H69.4111ZM66.7682 156.367C67.1528 156.366 67.5339 156.441 67.8894 156.588C68.245 156.735 68.5681 156.95 68.8401 157.223C69.112 157.495 69.3275 157.818 69.4741 158.174C69.6208 158.53 69.6956 158.911 69.6944 159.296C69.6999 159.68 69.6264 160.06 69.4786 160.413C69.3307 160.767 69.1117 161.086 68.8351 161.351C68.5662 161.626 68.2443 161.843 67.889 161.989C67.5337 162.136 67.1523 162.208 66.7682 162.202C65.9983 162.202 65.2599 161.896 64.7155 161.351C64.1711 160.806 63.8652 160.067 63.8652 159.296C63.8588 158.912 63.9309 158.53 64.077 158.174C64.2232 157.819 64.4403 157.496 64.7152 157.228C64.98 156.951 65.299 156.731 65.6522 156.583C66.0054 156.436 66.3853 156.362 66.7682 156.367Z" fill="#186599"/>
<path d="M87.6417 178.017L88.2269 178.482C87.5274 179.903 86.4549 181.106 85.1242 181.964C83.9424 182.71 82.5736 183.107 81.1762 183.108C80.093 183.143 79.017 182.92 78.0367 182.458C77.0563 181.996 76.1997 181.307 75.5374 180.448C74.1128 178.624 73.3658 176.361 73.4241 174.046C73.3818 171.783 74.0548 169.563 75.347 167.705C76.0431 166.652 76.9966 165.795 78.1168 165.215C79.237 164.635 80.4868 164.351 81.7475 164.39C83.5682 164.39 85.0158 164.855 86.0903 165.785C87.1679 166.715 87.7067 167.728 87.7067 168.863C87.7203 169.178 87.6696 169.493 87.5578 169.787C87.446 170.082 87.2754 170.351 87.0564 170.578C86.8296 170.795 86.5612 170.964 86.2674 171.074C85.9736 171.184 85.6606 171.234 85.3472 171.22C85.0034 171.234 84.6604 171.176 84.3404 171.05C84.0204 170.923 83.7305 170.731 83.4893 170.485C83.0062 169.992 82.7074 169.118 82.5928 167.863C82.5879 167.266 82.398 166.684 82.0494 166.199C81.9224 166.054 81.7661 165.937 81.5907 165.857C81.4153 165.777 81.225 165.735 81.0322 165.734C80.7135 165.748 80.4038 165.844 80.1329 166.012C79.862 166.181 79.6391 166.416 79.4855 166.696C78.8321 167.669 78.5039 169.154 78.5008 171.15C78.4943 172.772 78.7629 174.383 79.295 175.915C79.6885 177.225 80.4398 178.399 81.4641 179.305C82.1651 179.847 83.0307 180.133 83.9166 180.114C84.5267 180.114 85.1279 179.966 85.6676 179.681C86.411 179.237 87.0776 178.674 87.6417 178.017Z" fill="#186599"/>
<path d="M97.2795 164.917V178.906C97.2795 180.146 97.4234 180.941 97.7114 181.291C98.004 181.64 98.5661 181.835 99.4114 181.886V182.565H89.8896V181.886C90.2098 181.901 90.5294 181.848 90.8279 181.731C91.1263 181.614 91.3969 181.436 91.6221 181.208C91.873 180.919 91.9984 180.152 91.9984 178.906V168.599C91.9984 167.359 91.8544 166.564 91.5664 166.214C91.2784 165.865 90.7164 165.67 89.8896 165.619V164.917H97.2795ZM94.6412 156.367C95.3162 156.365 95.9711 156.597 96.4942 157.024C97.0174 157.451 97.3764 158.046 97.5102 158.708C97.6439 159.371 97.5441 160.059 97.2277 160.656C96.9114 161.252 96.398 161.721 95.7752 161.981C95.1523 162.242 94.4586 162.278 93.8121 162.083C93.1657 161.889 92.6066 161.476 92.2301 160.915C91.8536 160.355 91.6831 159.681 91.7475 159.008C91.812 158.336 92.1075 157.706 92.5836 157.227C92.8498 156.951 93.1697 156.732 93.5235 156.584C93.8774 156.437 94.2578 156.363 94.6412 156.367Z" fill="#186599"/>
<path d="M108.028 156.971V178.905C108.028 180.145 108.171 180.94 108.459 181.29C108.752 181.639 109.314 181.834 110.159 181.885V182.564H100.638V181.885C100.958 181.9 101.277 181.847 101.576 181.73C101.874 181.613 102.145 181.435 102.37 181.206C102.621 180.918 102.746 180.151 102.746 178.905V160.634C102.746 159.394 102.602 158.604 102.314 158.263C102.026 157.919 101.464 157.719 100.638 157.673V156.971H108.028Z" fill="#186599"/>
<path d="M118.757 156.971V178.905C118.757 180.145 118.901 180.94 119.189 181.29C119.477 181.639 120.043 181.834 120.889 181.885V182.564H111.362V181.885C111.683 181.9 112.004 181.847 112.303 181.73C112.602 181.613 112.873 181.435 113.099 181.206C113.35 180.918 113.476 180.151 113.476 178.905V160.634C113.476 159.394 113.332 158.604 113.044 158.263C112.751 157.919 112.194 157.719 111.362 157.673V156.971H118.757Z" fill="#186599"/>
<path d="M129.468 164.917V178.906C129.468 180.146 129.612 180.941 129.9 181.291C130.188 181.64 130.754 181.835 131.595 181.886V182.565H122.073V181.886C122.394 181.901 122.715 181.848 123.014 181.732C123.313 181.615 123.584 181.436 123.81 181.208C124.061 180.919 124.187 180.152 124.187 178.906V168.599C124.187 167.359 124.043 166.564 123.755 166.214C123.462 165.866 122.905 165.67 122.073 165.619V164.917H129.468ZM126.825 156.367C127.209 156.366 127.59 156.441 127.946 156.588C128.302 156.735 128.625 156.95 128.897 157.223C129.169 157.495 129.384 157.818 129.531 158.174C129.677 158.53 129.752 158.911 129.751 159.296C129.757 159.68 129.683 160.06 129.535 160.413C129.387 160.767 129.168 161.086 128.892 161.351C128.623 161.626 128.301 161.844 127.946 161.99C127.591 162.136 127.209 162.209 126.825 162.202C126.055 162.202 125.317 161.896 124.772 161.351C124.228 160.806 123.922 160.067 123.922 159.296C123.915 158.912 123.988 158.53 124.134 158.174C124.28 157.819 124.497 157.496 124.772 157.228C125.037 156.951 125.356 156.731 125.709 156.583C126.062 156.436 126.442 156.362 126.825 156.367Z" fill="#186599"/>
<path d="M140.517 164.916V167.204C141.262 166.352 142.14 165.628 143.119 165.06C143.94 164.616 144.86 164.386 145.794 164.391C146.824 164.345 147.836 164.676 148.641 165.321C149.381 165.93 149.91 166.759 150.151 167.687C150.407 169.049 150.508 170.435 150.453 171.82V178.691C150.453 180.049 150.578 180.895 150.82 181.23C151.061 181.565 151.577 181.774 152.357 181.862V182.541H143.439V181.862C143.726 181.844 144.005 181.76 144.255 181.615C144.504 181.471 144.716 181.271 144.874 181.03C145.074 180.719 145.172 179.937 145.172 178.705V170.862C145.212 169.948 145.156 169.032 145.004 168.129C144.913 167.781 144.711 167.472 144.428 167.25C144.174 167.047 143.858 166.937 143.532 166.939C142.448 166.939 141.443 167.713 140.517 169.263V178.719C140.517 180.04 140.64 180.877 140.884 181.23C141.053 181.43 141.262 181.592 141.497 181.706C141.732 181.82 141.989 181.882 142.25 181.89V182.569H133.332V181.89C133.631 181.886 133.926 181.82 134.198 181.697C134.471 181.574 134.715 181.396 134.916 181.174C135.13 180.895 135.236 180.077 135.236 178.719V168.761C135.236 167.425 135.114 166.595 134.869 166.269C134.623 165.939 134.112 165.725 133.332 165.628V164.926L140.517 164.916Z" fill="#186599"/>
<path d="M7.68272 186.809H4.99805V188.952H7.68272V186.809Z" fill="#54C7EF"/>
<path d="M39.1368 201.338H36.833V203.481H39.1368V201.338Z" fill="#54C7EF"/>
<path d="M35.8946 201.338H33.5908V203.481H35.8946V201.338Z" fill="#54C7EF"/>
<path d="M119.254 185.186H116.95V187.329H119.254V185.186Z" fill="#54C7EF"/>
<path d="M150.648 189.455V195.034C150.648 195.759 150.429 196.196 149.969 196.377C149.361 196.52 148.735 196.575 148.112 196.54H121.873C121.249 196.575 120.624 196.52 120.015 196.377C119.551 196.196 119.337 195.736 119.337 195.034V189.455H116.792V195.034C116.792 195.736 116.574 196.196 116.114 196.377C115.505 196.52 114.88 196.575 114.256 196.54H98.9329C98.4042 196.56 97.8747 196.54 97.3491 196.48C97.0923 196.435 96.8553 196.314 96.6694 196.131C96.4835 195.948 96.3577 195.713 96.3086 195.457V189.436H93.7261V195.085C93.7291 195.313 93.6712 195.537 93.5585 195.735C93.4458 195.933 93.2824 196.097 93.0852 196.21C92.6568 196.465 92.1611 196.583 91.6639 196.549C91.1659 196.561 90.6742 196.436 90.2426 196.187C90.0445 196.085 89.8783 195.93 89.762 195.74C89.6457 195.55 89.5838 195.331 89.583 195.108V190.78H87.2374V195.108C87.2374 196.01 86.6011 196.47 85.2959 196.549C84.8209 196.582 84.3447 196.508 83.9025 196.331C83.7165 196.275 83.5484 196.171 83.4148 196.03C83.2812 195.889 83.1867 195.716 83.1408 195.527C83.1408 194.346 83.1175 193.323 83.1175 192.5V189.436H80.5861V194.183C80.5861 195.187 80.4886 195.847 80.1635 196.131C79.8383 196.415 79.1648 196.531 78.064 196.531H62.0443C61.6262 196.499 61.2188 196.383 60.8459 196.191C60.6667 196.059 60.5246 195.882 60.4335 195.679C60.3424 195.475 60.3052 195.251 60.3257 195.029V184.285H57.7386V195.048C57.7626 195.265 57.7293 195.484 57.6421 195.684C57.5549 195.884 57.4168 196.057 57.2416 196.187C56.8676 196.381 56.4585 196.498 56.0386 196.531H40.1582C39.5343 196.569 38.9082 196.514 38.3003 196.368C37.8358 196.187 37.5989 195.75 37.5989 195.025V189.446H35.0722V195.025C35.0722 195.75 34.8307 196.187 34.3708 196.368C33.7624 196.511 33.1368 196.566 32.5129 196.531H15.3273C14.7796 196.545 14.2316 196.518 13.6877 196.452C13.4152 196.376 13.1701 196.224 12.9816 196.013C12.793 195.802 12.6689 195.541 12.6241 195.262C12.5574 194.974 12.5247 194.679 12.5265 194.383V189.395H9.92084V199.358C9.92084 200.617 9.10336 201.38 7.4777 201.64C5.95886 201.882 4.77445 201.64 3.95697 200.938C3.76243 200.727 3.61534 200.477 3.5256 200.204C3.43586 199.932 3.40557 199.643 3.43676 199.358V192.421H0.831055V199.358C0.831055 200.92 1.21192 202.021 1.99224 202.663C2.8478 203.309 3.85592 203.722 4.91844 203.862C6.07326 204.069 7.25773 204.042 8.402 203.783C9.49308 203.571 10.5004 203.05 11.305 202.282C11.7052 201.909 12.0221 201.456 12.2351 200.952C12.448 200.448 12.5521 199.905 12.5405 199.358V198.595C13.1629 198.928 13.8554 199.108 14.5609 199.12H32.5129C34.1757 199.12 35.4391 198.702 36.3402 197.837C37.2276 198.633 38.3722 199.082 39.5637 199.102H56.8607V199.074C57.6251 199.055 58.3737 198.852 59.0438 198.483C59.8447 198.91 60.7425 199.122 61.6495 199.097H78.9605V199.069C80.2471 198.972 81.1203 198.604 81.5662 197.916C82.1886 198.697 83.2662 199.097 84.8175 199.097C85.653 199.129 86.4872 199.007 87.2792 198.739C87.7833 198.583 88.2077 198.239 88.4636 197.777C88.7149 198.253 89.1362 198.616 89.6434 198.795C90.4241 199.048 91.2431 199.163 92.0633 199.134C93.6054 199.134 94.6876 198.855 95.3147 198.274L95.533 198.074C96.0299 198.693 96.8892 199.046 98.1201 199.12H115.417V199.037C116.392 198.928 117.306 198.507 118.023 197.837C118.847 198.608 119.92 199.057 121.047 199.102H149.096V199.041C149.998 198.959 150.862 198.638 151.6 198.112C152.065 197.744 152.435 197.269 152.677 196.727C152.92 196.186 153.028 195.594 152.993 195.001V189.422L150.648 189.455Z" fill="#54C7EF"/>
<path d="M151.572 201.338H149.269V203.481H151.572V201.338Z" fill="#54C7EF"/>
<path d="M77.0514 7.49805C68.8418 7.49805 60.9684 10.762 55.1629 16.5721C49.3575 22.3821 46.0954 30.2624 46.0941 38.4796V97.1325C46.0439 101.233 46.8075 105.303 48.3407 109.107C49.8738 112.91 52.1459 116.37 55.0253 119.288C57.9047 122.206 61.3341 124.522 65.1147 126.103C68.8953 127.684 72.9518 128.498 77.0491 128.498C81.1464 128.498 85.2029 127.684 88.9835 126.103C92.764 124.522 96.1934 122.206 99.0729 119.288C101.952 116.37 104.224 112.91 105.758 109.107C107.291 105.303 108.054 101.233 108.004 97.1325V38.4796C108.004 30.2628 104.743 22.3825 98.9382 16.5723C93.1335 10.7622 85.2606 7.49805 77.0514 7.49805ZM100.275 97.1325C100.275 103.298 97.8284 109.21 93.4731 113.57C89.1178 117.929 83.2107 120.378 77.0514 120.378C70.8921 120.378 64.985 117.929 60.6297 113.57C56.2744 109.21 53.8276 103.298 53.8276 97.1325V38.4796C53.8276 32.3145 56.2744 26.4019 60.6297 22.0426C64.985 17.6832 70.8921 15.2341 77.0514 15.2341C83.2107 15.2341 89.1178 17.6832 93.4731 22.0426C97.8284 26.4019 100.275 32.3145 100.275 38.4796V97.1325Z" fill="#186599"/>
<path d="M77.5997 19.6422C74.9984 19.5701 72.409 20.0208 69.9847 20.9677C67.5605 21.9145 65.3504 23.3383 63.4854 25.1548C61.6203 26.9714 60.1381 29.1437 59.1263 31.5435C58.1145 33.9433 57.5937 36.5218 57.5947 39.1266V61.7955C57.5947 66.9644 59.6461 71.9215 63.2976 75.5764C66.9491 79.2312 71.9016 81.2845 77.0655 81.2845C82.2287 81.2833 87.18 79.2295 90.8305 75.5747C94.481 71.9199 96.5317 66.9635 96.5317 61.7955V39.5171C96.5178 28.9079 88.2037 19.9351 77.5997 19.6422ZM77.0516 74.9199C73.574 74.9199 70.2389 73.5372 67.7799 71.0759C65.3209 68.6146 63.9395 65.2764 63.9395 61.7955V38.8383C63.9395 35.3575 65.3209 32.0193 67.7799 29.558C70.2389 27.0967 73.574 25.7139 77.0516 25.7139C80.5292 25.7139 83.8643 27.0967 86.3233 29.558C88.7823 32.0193 90.1637 35.3575 90.1637 38.8383V61.7955C90.1637 65.2764 88.7823 68.6146 86.3233 71.0759C83.8643 73.5372 80.5292 74.9199 77.0516 74.9199Z" fill="#54C7EF"/>
<path d="M90.1591 96.7464V96.9975C90.1591 104.217 84.5111 110.41 77.2978 110.54C75.5563 110.574 73.8256 110.259 72.2069 109.615C70.5881 108.972 69.1138 108.011 67.8701 106.791C66.6264 105.57 65.6382 104.114 64.9633 102.506C64.2885 100.899 63.9404 99.1733 63.9395 97.4298V96.7464C63.9395 95.903 63.6047 95.0942 63.0089 94.4978C62.4131 93.9015 61.605 93.5664 60.7625 93.5664C59.9218 93.5701 59.1168 93.9066 58.5233 94.5024C57.9298 95.0983 57.5959 95.905 57.5947 96.7464V96.951C57.5947 107.728 66.1411 116.84 76.9123 116.914C79.4803 116.932 82.0266 116.441 84.4044 115.47C86.7823 114.499 88.9447 113.067 90.7673 111.256C92.59 109.445 94.0368 107.291 95.0245 104.918C96.0122 102.545 96.5212 100 96.5224 97.4298V96.7464C96.5224 95.903 96.1877 95.0942 95.5919 94.4978C94.9961 93.9015 94.188 93.5664 93.3454 93.5664C92.9274 93.5652 92.5133 93.6466 92.1268 93.8058C91.7402 93.9651 91.3889 94.1991 91.0929 94.4945C90.7969 94.7899 90.5621 95.1409 90.4018 95.5273C90.2416 95.9137 90.1591 96.328 90.1591 96.7464Z" fill="#186599"/>
<path d="M57.5945 44.6309H63.9532V89.9037C63.9532 90.2305 63.8235 90.5438 63.5926 90.7749C63.3618 91.0059 63.0487 91.1357 62.7223 91.1357H58.8207C58.4943 91.1357 58.1812 91.0059 57.9504 90.7749C57.7195 90.5438 57.5898 90.2305 57.5898 89.9037V44.6309H57.5945Z" fill="#54C7EF"/>
<path d="M57.5947 65.166C57.856 67.3399 58.5541 69.4384 59.6468 71.3351C60.7396 73.2319 62.2045 74.8877 63.9534 76.203V79.2388C63.9534 79.2388 58.1428 74.4781 57.5947 65.166Z" fill="#38B3D2"/>
<path d="M93.201 92.2652C94.8967 92.2652 96.2712 90.8894 96.2712 89.1922C96.2712 87.495 94.8967 86.1191 93.201 86.1191C91.5054 86.1191 90.1309 87.495 90.1309 89.1922C90.1309 90.8894 91.5054 92.2652 93.201 92.2652Z" fill="#186599"/>
</svg>
