<svg width="46" height="46" viewBox="0 0 46 46" fill="none" xmlns="http://www.w3.org/2000/svg">
<g id="fi-sr-phone-flip" clip-path="url(#clip0_496_4430)">
<path id="Vector" d="M33.7996 45.4994C19.4746 45.4994 0.499603 26.5057 0.499603 12.1994C0.499603 9.06815 1.68085 6.14315 3.8371 3.9869L5.99335 2.1119C8.16835 -0.0630957 11.8434 -0.0630959 14.1121 2.20565C14.1684 2.2619 17.6371 6.78065 17.6371 6.78065C19.7746 9.03065 19.7746 12.5744 17.6371 14.8057L15.4434 17.5432C17.9934 23.5432 22.2684 27.7994 28.4746 30.5369L31.2121 28.3619C33.4434 26.2057 37.0059 26.2057 39.2371 28.3619C39.2371 28.3619 43.7559 31.8307 43.8121 31.8869C46.0809 34.1557 46.0809 37.8307 43.8121 40.0994L42.1059 42.0682C39.8746 44.3182 36.9496 45.4994 33.8184 45.4994H33.7996Z" fill="#006AA9"/>
</g>
<defs>
<clipPath id="clip0_496_4430">
<rect width="45" height="45" fill="white" transform="matrix(0 1 -1 0 45.5 0.5)"/>
</clipPath>
</defs>
</svg>
