<svg width="22" height="22" viewBox="0 0 22 22" fill="none" xmlns="http://www.w3.org/2000/svg">
<g clip-path="url(#clip0_546_2109)">
<path d="M11 22C10.0275 22 9.09491 21.6137 8.40728 20.9261C7.71964 20.2384 7.33333 19.3058 7.33333 18.3333V14.6667H3.66667C2.69421 14.6667 1.76158 14.2804 1.07394 13.5927C0.386308 12.9051 0 11.9725 0 11C0 10.0275 0.386308 9.09491 1.07394 8.40728C1.76158 7.71964 2.69421 7.33333 3.66667 7.33333H7.33333V3.66667C7.33333 2.69421 7.71964 1.76158 8.40728 1.07394C9.09491 0.386308 10.0275 0 11 0C11.9725 0 12.9051 0.386308 13.5927 1.07394C14.2804 1.76158 14.6667 2.69421 14.6667 3.66667V7.33333H18.3333C19.3058 7.33333 20.2384 7.71964 20.9261 8.40728C21.6137 9.09491 22 10.0275 22 11C22 11.9725 21.6137 12.9051 20.9261 13.5927C20.2384 14.2804 19.3058 14.6667 18.3333 14.6667H14.6667V18.3333C14.6667 19.3058 14.2804 20.2384 13.5927 20.9261C12.9051 21.6137 11.9725 22 11 22Z" fill="#3284BB"/>
</g>
<defs>
<clipPath id="clip0_546_2109">
<rect width="22" height="22" fill="white"/>
</clipPath>
</defs>
</svg>
