<svg width="22" height="22" viewBox="0 0 22 22" fill="none" xmlns="http://www.w3.org/2000/svg">
<g clip-path="url(#clip0_546_1995)">
<path d="M11 22C10.0275 22 9.09491 21.6137 8.40728 20.9261C7.71964 20.2384 7.33333 19.3058 7.33333 18.3333V14.6667H3.66667C2.69421 14.6667 1.76158 14.2804 1.07394 13.5927C0.386308 12.9051 0 11.9725 0 11C0 10.0275 0.386308 9.09491 1.07394 8.40728C1.76158 7.71964 2.69421 7.33333 3.66667 7.33333H7.33333V3.66667C7.33333 2.69421 7.71964 1.76158 8.40728 1.07394C9.09491 0.386308 10.0275 0 11 0C11.9725 0 12.9051 0.386308 13.5927 1.07394C14.2804 1.76158 14.6667 2.69421 14.6667 3.66667V7.33333H18.3333C19.3058 7.33333 20.2384 7.71964 20.9261 8.40728C21.6137 9.09491 22 10.0275 22 11C22 11.9725 21.6137 12.9051 20.9261 13.5927C20.2384 14.2804 19.3058 14.6667 18.3333 14.6667H14.6667V18.3333C14.6667 19.3058 14.2804 20.2384 13.5927 20.9261C12.9051 21.6137 11.9725 22 11 22ZM3.66667 9.16667C3.18044 9.16667 2.71412 9.35982 2.3703 9.70364C2.02649 10.0475 1.83333 10.5138 1.83333 11C1.83333 11.4862 2.02649 11.9525 2.3703 12.2964C2.71412 12.6402 3.18044 12.8333 3.66667 12.8333H8.25C8.49312 12.8333 8.72627 12.9299 8.89818 13.1018C9.07009 13.2737 9.16667 13.5069 9.16667 13.75V18.3333C9.16667 18.8196 9.35982 19.2859 9.70364 19.6297C10.0475 19.9735 10.5138 20.1667 11 20.1667C11.4862 20.1667 11.9525 19.9735 12.2964 19.6297C12.6402 19.2859 12.8333 18.8196 12.8333 18.3333V13.75C12.8333 13.5069 12.9299 13.2737 13.1018 13.1018C13.2737 12.9299 13.5069 12.8333 13.75 12.8333H18.3333C18.8196 12.8333 19.2859 12.6402 19.6297 12.2964C19.9735 11.9525 20.1667 11.4862 20.1667 11C20.1667 10.5138 19.9735 10.0475 19.6297 9.70364C19.2859 9.35982 18.8196 9.16667 18.3333 9.16667H13.75C13.5069 9.16667 13.2737 9.07009 13.1018 8.89818C12.9299 8.72627 12.8333 8.49312 12.8333 8.25V3.66667C12.8333 3.18044 12.6402 2.71412 12.2964 2.3703C11.9525 2.02649 11.4862 1.83333 11 1.83333C10.5138 1.83333 10.0475 2.02649 9.70364 2.3703C9.35982 2.71412 9.16667 3.18044 9.16667 3.66667V8.25C9.16667 8.49312 9.07009 8.72627 8.89818 8.89818C8.72627 9.07009 8.49312 9.16667 8.25 9.16667H3.66667Z" fill="#CDCDCD"/>
</g>
<defs>
<clipPath id="clip0_546_1995">
<rect width="22" height="22" fill="white"/>
</clipPath>
</defs>
</svg>
