<svg width="25" height="26" viewBox="0 0 25 26" fill="none" xmlns="http://www.w3.org/2000/svg">
<path d="M24.6949 23.722L18.4772 17.5043C20.1716 15.432 21.0047 12.7877 20.8041 10.1184C20.6036 7.44913 19.3847 4.95903 17.3997 3.16318C15.4147 1.36734 12.8153 0.403152 10.1393 0.47006C7.46336 0.536968 4.91545 1.62985 3.02265 3.52265C1.12985 5.41545 0.0369681 7.96336 -0.02994 10.6393C-0.0968481 13.3153 0.867337 15.9147 2.66318 17.8997C4.45903 19.8847 6.94913 21.1036 9.61843 21.3041C12.2877 21.5047 14.932 20.6716 17.0043 18.9772L23.222 25.1949C23.4185 25.3847 23.6816 25.4897 23.9547 25.4873C24.2278 25.4849 24.4891 25.3754 24.6822 25.1822C24.8754 24.9891 24.9849 24.7278 24.9873 24.4547C24.9897 24.1816 24.8847 23.9185 24.6949 23.722ZM10.4168 19.2501C8.76863 19.2501 7.15746 18.7614 5.78705 17.8457C4.41664 16.93 3.34854 15.6286 2.71781 14.1058C2.08708 12.5831 1.92205 10.9076 2.24359 9.29105C2.56514 7.67454 3.35881 6.18969 4.52425 5.02425C5.68969 3.85881 7.17454 3.06514 8.79105 2.74359C10.4076 2.42205 12.0831 2.58708 13.6058 3.21781C15.1286 3.84854 16.43 4.91664 17.3457 6.28705C18.2614 7.65746 18.7501 9.26863 18.7501 10.9168C18.7477 13.1262 17.8689 15.2444 16.3066 16.8066C14.7444 18.3689 12.6262 19.2477 10.4168 19.2501Z" fill="#C6C6C6"/>
</svg>
