<svg width="18" height="19" viewBox="0 0 18 19" fill="none" xmlns="http://www.w3.org/2000/svg">
<g id="Group">
<path id="Vector" d="M1.20548 14C1.82585 15.0767 3.20162 15.4466 4.27831 14.8262C4.27905 14.8258 4.27975 14.8254 4.28049 14.825L4.61423 14.6322C5.24423 15.1712 5.96838 15.5892 6.75022 15.8652V16.25C6.75022 17.4926 7.75759 18.5 9.00022 18.5C10.2429 18.5 11.2502 17.4926 11.2502 16.25V15.8652C12.0322 15.5888 12.7563 15.1703 13.3862 14.6307L13.7215 14.8242C14.7984 15.4456 16.1752 15.0762 16.7965 13.9992C17.4178 12.9223 17.0484 11.5455 15.9715 10.9242L15.6385 10.7322C15.7884 9.91657 15.7884 9.08041 15.6385 8.26472L15.9715 8.07273C17.0484 7.45141 17.4178 6.07469 16.7965 4.99771C16.1752 3.92077 14.7984 3.55139 13.7215 4.1727L13.3877 4.36546C12.7571 3.82712 12.0324 3.40988 11.2502 3.13475V2.75C11.2502 1.50737 10.2429 0.5 9.00022 0.5C7.75759 0.5 6.75022 1.50737 6.75022 2.75V3.13475C5.96827 3.41118 5.24409 3.82968 4.61423 4.36926L4.27898 4.17502C3.202 3.55367 1.82529 3.92306 1.20397 5C0.582654 6.07694 0.952005 7.4537 2.02898 8.07501L2.36198 8.267C2.21208 9.08266 2.21208 9.91882 2.36198 10.7345L2.02898 10.9265C0.954993 11.5495 0.586837 12.9235 1.20548 14ZM9.00022 6.50001C10.6571 6.50001 12.0002 7.84316 12.0002 9.5C12.0002 11.1568 10.6571 12.5 9.00022 12.5C7.34338 12.5 6.00023 11.1568 6.00023 9.5C6.00023 7.84316 7.34338 6.50001 9.00022 6.50001Z" fill="#3284BB"/>
</g>
</svg>
