<svg width="25" height="25" viewBox="0 0 25 25" fill="none" xmlns="http://www.w3.org/2000/svg">
<g id="Group">
<path id="Vector" d="M3.91344e-05 12.4853C-0.0105923 15.1566 2.14628 17.3307 4.81756 17.3413C6.04779 17.3462 7.23368 16.8821 8.1338 16.0435L15.3416 19.2978C15.2915 19.5673 15.2641 19.8405 15.2594 20.1145C15.2509 22.8042 17.4244 24.9915 20.114 25C22.8037 25.0085 24.991 22.835 24.9995 20.1454C25.008 17.4557 22.8345 15.2684 20.1449 15.2599C18.5379 15.2548 17.0319 16.0428 16.1198 17.3658L9.34793 14.3081C9.82893 13.1466 9.83078 11.842 9.35315 10.6792L16.1157 7.60588C17.6385 9.8083 20.6584 10.3592 22.8608 8.8364C25.0632 7.31362 25.614 4.29379 24.0912 2.09137C22.5685 -0.111052 19.5486 -0.661938 17.3462 0.86085C16.0345 1.76774 15.2527 3.26156 15.2552 4.85618C15.2596 5.13065 15.2875 5.40419 15.3385 5.67393L8.1494 8.94072C6.20165 7.11176 3.14003 7.20808 1.31107 9.15583C0.464605 10.0574 -0.00454508 11.2487 3.91344e-05 12.4853Z" fill="#363636"/>
</g>
</svg>
