<svg width="22" height="22" viewBox="0 0 22 22" fill="none" xmlns="http://www.w3.org/2000/svg">
<g clip-path="url(#clip0_496_3824)">
<path d="M20.8202 3.73725C20.5624 3.42782 20.2396 3.17895 19.8747 3.00833C19.5099 2.83771 19.1119 2.74951 18.7092 2.75H3.8885L3.85 2.42825C3.77121 1.75947 3.44977 1.14284 2.94662 0.695271C2.44346 0.247705 1.79358 0.000313311 1.12017 0L0.916667 0C0.673552 0 0.440394 0.0965771 0.268485 0.268485C0.0965771 0.440394 0 0.673552 0 0.916667C0 1.15978 0.0965771 1.39294 0.268485 1.56485C0.440394 1.73676 0.673552 1.83333 0.916667 1.83333H1.12017C1.34469 1.83336 1.56139 1.91579 1.72917 2.06499C1.89696 2.21419 2.00415 2.41977 2.03042 2.64275L3.29175 13.3678C3.4227 14.4831 3.9586 15.5116 4.79775 16.258C5.63689 17.0044 6.72087 17.4167 7.84392 17.4167H17.4167C17.6598 17.4167 17.8929 17.3201 18.0648 17.1482C18.2368 16.9763 18.3333 16.7431 18.3333 16.5C18.3333 16.2569 18.2368 16.0237 18.0648 15.8518C17.8929 15.6799 17.6598 15.5833 17.4167 15.5833H7.84392C7.27655 15.5817 6.72357 15.4047 6.26077 15.0765C5.79798 14.7483 5.44804 14.2849 5.25892 13.75H16.1856C17.2602 13.7501 18.3006 13.3725 19.1252 12.6834C19.9497 11.9943 20.5059 11.0373 20.6965 9.97975L21.4161 5.98858C21.4879 5.59259 21.4718 5.18564 21.3688 4.79658C21.2658 4.40752 21.0786 4.04587 20.8202 3.73725Z" fill="#3284BB"/>
<path d="M6.41634 21.9997C7.42886 21.9997 8.24967 21.1789 8.24967 20.1663C8.24967 19.1538 7.42886 18.333 6.41634 18.333C5.40382 18.333 4.58301 19.1538 4.58301 20.1663C4.58301 21.1789 5.40382 21.9997 6.41634 21.9997Z" fill="#3284BB"/>
<path d="M15.5833 21.9997C16.5959 21.9997 17.4167 21.1789 17.4167 20.1663C17.4167 19.1538 16.5959 18.333 15.5833 18.333C14.5708 18.333 13.75 19.1538 13.75 20.1663C13.75 21.1789 14.5708 21.9997 15.5833 21.9997Z" fill="#3284BB"/>
</g>
<defs>
<clipPath id="clip0_496_3824">
<rect width="22" height="22" fill="white"/>
</clipPath>
</defs>
</svg>
