<svg width="22" height="22" viewBox="0 0 22 22" fill="none" xmlns="http://www.w3.org/2000/svg">
<g clip-path="url(#clip0_496_4366)">
<path d="M20.8202 3.73725C20.5624 3.42782 20.2396 3.17895 19.8747 3.00833C19.5099 2.83771 19.1119 2.74951 18.7092 2.75H3.8885L3.85 2.42825C3.77121 1.75947 3.44977 1.14284 2.94662 0.695271C2.44346 0.247705 1.79358 0.000313311 1.12017 0L0.916667 0C0.673552 0 0.440394 0.0965771 0.268485 0.268485C0.0965771 0.440394 0 0.673552 0 0.916667C0 1.15978 0.0965771 1.39294 0.268485 1.56485C0.440394 1.73676 0.673552 1.83333 0.916667 1.83333H1.12017C1.34469 1.83336 1.56139 1.91579 1.72917 2.06499C1.89696 2.21419 2.00415 2.41977 2.03042 2.64275L3.29175 13.3678C3.4227 14.4831 3.9586 15.5116 4.79775 16.258C5.63689 17.0044 6.72087 17.4167 7.84392 17.4167H17.4167C17.6598 17.4167 17.8929 17.3201 18.0648 17.1482C18.2368 16.9763 18.3333 16.7431 18.3333 16.5C18.3333 16.2569 18.2368 16.0237 18.0648 15.8518C17.8929 15.6799 17.6598 15.5833 17.4167 15.5833H7.84392C7.27655 15.5817 6.72357 15.4047 6.26077 15.0765C5.79798 14.7483 5.44804 14.2849 5.25892 13.75H16.1856C17.2602 13.7501 18.3006 13.3725 19.1252 12.6834C19.9497 11.9943 20.5059 11.0373 20.6965 9.97975L21.4161 5.98858C21.4879 5.59259 21.4718 5.18565 21.3688 4.79658C21.2658 4.40752 21.0786 4.04587 20.8202 3.73725ZM19.6167 5.66317L18.8962 9.65433C18.7817 10.2896 18.4474 10.8643 17.9519 11.2779C17.4563 11.6915 16.8311 11.9176 16.1856 11.9167H4.96742L4.10483 4.58333H18.7092C18.8438 4.58253 18.977 4.6114 19.0992 4.6679C19.2215 4.7244 19.3298 4.80713 19.4164 4.91022C19.503 5.01331 19.5659 5.13422 19.6005 5.26436C19.6351 5.3945 19.6406 5.53066 19.6167 5.66317Z" fill="#BDBDBD"/>
<path d="M6.41634 22.0007C7.42886 22.0007 8.24967 21.1798 8.24967 20.1673C8.24967 19.1548 7.42886 18.334 6.41634 18.334C5.40382 18.334 4.58301 19.1548 4.58301 20.1673C4.58301 21.1798 5.40382 22.0007 6.41634 22.0007Z" fill="#BDBDBD"/>
<path d="M15.5833 22.0007C16.5959 22.0007 17.4167 21.1798 17.4167 20.1673C17.4167 19.1548 16.5959 18.334 15.5833 18.334C14.5708 18.334 13.75 19.1548 13.75 20.1673C13.75 21.1798 14.5708 22.0007 15.5833 22.0007Z" fill="#BDBDBD"/>
</g>
<defs>
<clipPath id="clip0_496_4366">
<rect width="22" height="22" fill="white"/>
</clipPath>
</defs>
</svg>
