<svg width="20" height="21" viewBox="0 0 20 21" fill="none" xmlns="http://www.w3.org/2000/svg">
<g id="fi-sr-square-plus" clip-path="url(#clip0_496_4347)">
<path id="Vector" d="M15.8333 0.5H4.16667C1.86917 0.5 0 2.36917 0 4.66667V16.3333C0 18.6308 1.86917 20.5 4.16667 20.5H15.8333C18.1308 20.5 20 18.6308 20 16.3333V4.66667C20 2.36917 18.1308 0.5 15.8333 0.5ZM13.3333 11.3333H10.8333V13.8333C10.8333 14.2942 10.46 14.6667 10 14.6667C9.54 14.6667 9.16667 14.2942 9.16667 13.8333V11.3333H6.66667C6.20667 11.3333 5.83333 10.9608 5.83333 10.5C5.83333 10.0392 6.20667 9.66667 6.66667 9.66667H9.16667V7.16667C9.16667 6.70583 9.54 6.33333 10 6.33333C10.46 6.33333 10.8333 6.70583 10.8333 7.16667V9.66667H13.3333C13.7933 9.66667 14.1667 10.0392 14.1667 10.5C14.1667 10.9608 13.7933 11.3333 13.3333 11.3333Z" fill="#3284BB"/>
</g>
<defs>
<clipPath id="clip0_496_4347">
<rect width="20" height="20" fill="white" transform="translate(0 0.5)"/>
</clipPath>
</defs>
</svg>
