<svg width="22" height="24" viewBox="0 0 22 24" fill="none" xmlns="http://www.w3.org/2000/svg">
<path d="M14.707 11.707L12.414 14L14.707 16.293C15.098 16.684 15.098 17.316 14.707 17.707C14.512 17.902 14.256 18 14 18C13.744 18 13.488 17.902 13.293 17.707L11 15.414L8.70698 17.707C8.51198 17.902 8.25598 18 7.99998 18C7.74398 18 7.48798 17.902 7.29298 17.707C6.90198 17.316 6.90198 16.684 7.29298 16.293L9.58598 14L7.29298 11.707C6.90198 11.316 6.90198 10.684 7.29298 10.293C7.68398 9.902 8.31598 9.902 8.70698 10.293L11 12.586L13.293 10.293C13.684 9.902 14.316 9.902 14.707 10.293C15.098 10.684 15.098 11.316 14.707 11.707ZM22 5C22 5.553 21.552 6 21 6H20.115L18.839 19.472C18.594 22.053 16.454 24 13.861 24L8.13398 24C5.54498 24 3.40498 22.057 3.15698 19.479L1.86098 6H1.00098C0.448976 6 0.000976562 5.553 0.000976562 5C0.000976562 4.447 0.448976 4 1.00098 4L5.10198 4C5.56698 1.721 7.58698 0 10.001 0L12.001 0C14.415 0 16.436 1.721 16.9 4L21.001 4C21.553 4 22 4.447 22 5ZM7.17198 4L14.828 4C14.415 2.836 13.304 2 12 2H9.99998C8.69598 2 7.58498 2.836 7.17198 4ZM18.106 6L3.86998 6L5.14798 19.287C5.29598 20.834 6.57998 22 8.13398 22L13.861 22C15.417 22 16.701 20.832 16.848 19.282L18.106 6Z" fill="white"/>
</svg>
