<?xml version="1.0" encoding="utf-8"?>
<!-- Generator: Adobe Illustrator 27.2.0, SVG Export Plug-In . SVG Version: 6.00 Build 0)  -->
<svg version="1.1" id="Layer_1" xmlns="http://www.w3.org/2000/svg" xmlns:xlink="http://www.w3.org/1999/xlink" x="0px" y="0px"
	 viewBox="0 0 32 32" style="enable-background:new 0 0 32 32;" xml:space="preserve">
<style type="text/css">
	.st0{fill-rule:evenodd;clip-rule:evenodd;fill:#FF7643;}
</style>
<path class="st0" d="M15.5,15.1c0.5-0.3,1.1-0.1,1.4,0.4c0.3,0.5,0.1,1.1-0.4,1.4c-0.5,0.3-1.1,0.1-1.4-0.4S15,15.4,15.5,15.1z
	 M17.7,19L10,19.5l4.3-6.4l7.7-0.5L17.7,19z M23.2,11.2l-9.3,0.6c-0.2,0-0.4,0.1-0.5,0.3l-5.1,7.7c-0.1,0.2-0.1,0.5,0,0.7
	c0.1,0.2,0.3,0.3,0.6,0.3l9.3-0.6c0.1,0,0.2,0,0.3-0.1c0.1,0,0.2-0.1,0.2-0.2l5.1-7.7c0.1-0.2,0.1-0.5,0-0.7
	C23.6,11.3,23.4,11.2,23.2,11.2z M20.9,24.4c-4.7,2.7-10.6,1.1-13.3-3.6c-2.7-4.7-1.1-10.6,3.6-13.3c4.7-2.7,10.6-1.1,13.3,3.6
	C27.1,15.8,25.5,21.8,20.9,24.4z M10.5,6.5c-5.3,3-7.1,9.8-4,15c3,5.3,9.8,7.1,15,4s7.1-9.8,4-15C22.5,5.2,15.8,3.4,10.5,6.5z"/>
</svg>
